<svg width="36" height="36" viewBox="0 0 36 36" fill="none" xmlns="http://www.w3.org/2000/svg">
<g clip-path="url(#clip0)">
<path d="M35.73 8.68501L34.3575 5.73751C34.1871 5.37522 33.9392 5.05481 33.6312 4.79897C33.3233 4.54313 32.9629 4.35811 32.5755 4.25701C28.215 3.06901 23.2132 2.34226 18.0562 2.25226C12.9736 2.33116 7.9202 3.037 3.01049 4.35376C2.63924 4.46176 1.99124 5.00626 1.64924 5.72401L0.269992 8.68726C0.0929453 9.05192 0.000643923 9.45189 -8.30065e-06 9.85726V11.8148L-0.0022583 11.907C-0.0022583 12.789 0.713242 13.5045 1.59524 13.5045L1.66949 13.5023H7.33499C7.78146 13.4917 8.20607 13.3069 8.51805 12.9873C8.83003 12.6678 9.00462 12.2388 9.00449 11.7923L8.99999 11.673V9.78751V9.76051C9.00016 9.51601 9.06162 9.27546 9.17875 9.06085C9.29588 8.84623 9.46495 8.66441 9.67049 8.53201C12.2419 7.16622 15.145 6.54959 18.0495 6.75226C20.9477 6.55674 23.8432 7.17059 26.4127 8.52526C26.7345 8.74801 27.0022 9.20026 27.0022 9.71551V11.6775C26.987 11.9074 27.0184 12.138 27.0945 12.3555C27.1707 12.573 27.29 12.7729 27.4453 12.9431C27.6006 13.1133 27.7887 13.2504 27.9983 13.3461C28.2079 13.4418 28.4346 13.4941 28.665 13.5H34.3372L34.407 13.5023C34.8307 13.5023 35.237 13.334 35.5366 13.0344C35.8362 12.7348 36.0045 12.3284 36.0045 11.9048L36.0022 11.808V9.85501C36.0008 9.44392 35.9062 9.03849 35.7255 8.66926L35.73 8.68501Z" fill="#FDBE34"/>
<path d="M27 18.675C25.5357 16.7985 24.7427 14.4852 24.7477 12.105L24.75 11.916V11.25H22.5V13.5H13.5V11.25H11.25V11.9925L11.2522 12.1725C11.2555 14.5623 10.456 16.8839 8.982 18.765L2.25 27V33.75H33.75V27L27 18.675ZM18 29.25C16.2098 29.25 14.4929 28.5388 13.227 27.273C11.9612 26.0071 11.25 24.2902 11.25 22.5C11.25 20.7098 11.9612 18.9929 13.227 17.727C14.4929 16.4612 16.2098 15.75 18 15.75C19.7902 15.75 21.5071 16.4612 22.773 17.727C24.0388 18.9929 24.75 20.7098 24.75 22.5C24.75 24.2902 24.0388 26.0071 22.773 27.273C21.5071 28.5388 19.7902 29.25 18 29.25Z" fill="#FDBE34"/>
<path d="M22.5 22.5C22.5136 23.0993 22.4073 23.6952 22.1873 24.2528C21.9674 24.8104 21.6383 25.3185 21.2193 25.7472C20.8003 26.1758 20.2999 26.5165 19.7475 26.7491C19.195 26.9817 18.6017 27.1016 18.0023 27.1017C17.4029 27.1019 16.8095 26.9823 16.2569 26.7499C15.7044 26.5176 15.2038 26.1772 14.7846 25.7488C14.3654 25.3203 14.036 24.8124 13.8158 24.2549C13.5956 23.6974 13.489 23.1015 13.5023 22.5023C13.5283 21.3265 14.0135 20.2076 14.8541 19.3852C15.6948 18.5627 16.824 18.102 18 18.1017C19.1761 18.1015 20.3055 18.5616 21.1466 19.3836C21.9876 20.2056 22.4734 21.3243 22.5 22.5Z" fill="#FDBE34"/>
</g>
<defs>
<clipPath id="clip0">
<rect width="36" height="36" fill="white"/>
</clipPath>
</defs>
</svg>
