<?xml version="1.0" encoding="UTF-8" standalone="no"?>
<svg
   xmlns:dc="http://purl.org/dc/elements/1.1/"
   xmlns:cc="http://creativecommons.org/ns#"
   xmlns:rdf="http://www.w3.org/1999/02/22-rdf-syntax-ns#"
   xmlns:svg="http://www.w3.org/2000/svg"
   xmlns="http://www.w3.org/2000/svg"
   xmlns:sodipodi="http://sodipodi.sourceforge.net/DTD/sodipodi-0.dtd"
   xmlns:inkscape="http://www.inkscape.org/namespaces/inkscape"
   id="svg8"
   version="1.1"
   viewBox="0 0 75.670831 75.670831"
   height="286"
   width="286"
   sodipodi:docname="miejsce postojowe dla rowerów.svg"
   inkscape:version="0.92.4 5da689c313, 2019-01-14">
  <sodipodi:namedview
     pagecolor="#ffffff"
     bordercolor="#666666"
     borderopacity="1"
     objecttolerance="10"
     gridtolerance="10"
     guidetolerance="10"
     inkscape:pageopacity="0"
     inkscape:pageshadow="2"
     inkscape:window-width="1920"
     inkscape:window-height="1020"
     id="namedview8844"
     showgrid="false"
     inkscape:zoom="0.82517483"
     inkscape:cx="143"
     inkscape:cy="143"
     inkscape:window-x="0"
     inkscape:window-y="0"
     inkscape:window-maximized="1"
     inkscape:current-layer="layer16" />
  <defs
     id="defs2" />
  <metadata
     id="metadata5">
    <rdf:RDF>
      <cc:Work
         rdf:about="">
        <dc:format>image/svg+xml</dc:format>
        <dc:type
           rdf:resource="http://purl.org/dc/dcmitype/StillImage" />
        <dc:title />
      </cc:Work>
    </rdf:RDF>
  </metadata>
  <g
     inkscape:groupmode="layer"
     id="layer16"
     inkscape:label="Layer 1">
    <rect
       style="display:inline;fill:#ffffff;fill-rule:evenodd;stroke-width:0.26458332"
       id="rect1982"
       width="68.708389"
       height="68.616776"
       x="3.1745098"
       y="3.0957773"
       rx="5.4282708"
       ry="5.9669361" />
  </g>
  <g
     inkscape:groupmode="layer"
     id="layer17"
     inkscape:label="Layer 2">
    <g
       style=""
       transform="translate(0,-221.32918)"
       id="layer1">
      <rect
         ry="5.9669409"
         rx="5.4282579"
         y="224.42496"
         x="2.6453431"
         height="70.38015"
         width="70.38015"
         id="rect815"
         style="fill:none;fill-rule:evenodd;stroke:#000080;stroke-width:5.29068613;stroke-miterlimit:4;stroke-dasharray:none;stroke-opacity:1" />
      <path
         id="path2967"
         d="m 10.74701,282.25008 -0.611143,-0.10569 0.06823,-18.16963 c 0.03753,-9.9933 0.116752,-20.99825 0.176056,-24.45545 l 0.107827,-6.28583 0.661923,-0.16613 c 0.364058,-0.0914 0.738441,-0.0607 0.831962,0.0681 0.09352,0.12883 5.051602,0.27087 11.017956,0.31563 8.251454,0.0619 11.195537,0.17068 12.300261,0.45443 0.798789,0.20517 1.49332,0.49597 1.543403,0.64622 0.05008,0.15024 0.231728,0.27317 0.403657,0.27317 0.444526,0 2.242865,0.99461 2.892295,1.59965 0.301654,0.28103 0.73583,0.57117 0.96484,0.64475 0.229008,0.0736 0.654503,0.49131 0.945544,0.9283 0.291042,0.43699 0.677995,0.79487 0.859896,0.79529 0.181901,4.3e-4 0.330729,0.15231 0.330729,0.33753 0,0.18522 0.414377,0.96596 0.920835,1.73498 1.02924,1.56282 1.474184,2.47419 2.153274,4.41055 0.682763,1.9468 0.681898,7.64097 -0.0016,9.72343 -0.274582,0.83675 -0.602003,1.52136 -0.727604,1.52136 -0.125486,0 -0.228251,0.16359 -0.228251,0.36355 0,0.71712 -1.453374,2.96847 -2.764868,4.28293 -2.50548,2.51114 -4.595953,3.7753 -7.645621,4.62348 -1.661951,0.46223 -2.678209,0.52414 -8.337819,0.50795 -3.544851,-0.0101 -6.497568,0.0339 -6.561595,0.098 -0.06403,0.064 -0.154285,3.54347 -0.200575,7.7321 -0.07803,7.06092 -0.119974,7.64188 -0.575724,7.97513 -0.368054,0.26913 -1.423868,0.34593 -4.202158,0.30568 -2.040829,-0.0296 -3.985613,-0.10133 -4.321742,-0.15946 z m 22.457831,-25.60484 c 1.74357,-0.89821 2.629836,-1.78455 3.449753,-3.45003 0.735341,-1.49369 0.814046,-1.87542 0.716637,-3.4757 -0.182763,-3.00247 -1.545359,-5.22902 -3.939722,-6.43769 l -1.514172,-0.76435 -5.733791,-0.0357 c -3.153585,-0.0196 -5.81487,0.0453 -5.913966,0.14414 -0.0991,0.0989 -0.180176,3.35497 -0.180176,7.23573 v 7.05594 l 2.116667,0.13229 c 1.164167,0.0728 3.910957,0.11666 6.103978,0.0976 3.245028,-0.0283 4.156249,-0.12177 4.894792,-0.50223 z"
         style="fill:#000080;stroke-width:0.26458335" />
      <path
         id="path3042"
         d="m 35.036729,289.37163 c -1.583376,-0.48509 -2.971666,-1.45437 -2.786683,-1.9456 0.08053,-0.21385 0.05966,-0.30206 -0.04638,-0.19602 -0.319448,0.31945 -1.422676,-0.91631 -1.422676,-1.59357 0,-0.34703 -0.104194,-0.56656 -0.231543,-0.48786 -0.127348,0.0787 -0.381594,-0.39283 -0.564991,-1.04785 -1.29519,-4.62597 2.787426,-9.23013 7.781789,-8.7759 l 1.613704,0.14677 0.58131,-1.30919 c 0.31972,-0.72005 0.585198,-1.36712 0.589951,-1.43792 0.0048,-0.0708 0.192175,-0.48365 0.416492,-0.91743 0.425526,-0.82288 0.302343,-2.0797 -0.239429,-2.44286 -0.159494,-0.10691 -0.617412,-0.19621 -1.017595,-0.19844 -0.720497,-0.004 -0.910908,-0.36443 -0.518563,-0.98157 0.110516,-0.17383 0.436114,-0.27224 0.723552,-0.21868 0.287439,0.0536 1.703319,0.10649 3.146401,0.11763 1.443081,0.0111 2.538202,0.10582 2.433601,0.21042 -0.104601,0.1046 -0.809054,0.37731 -1.565452,0.60602 -1.254477,0.37931 -1.375142,0.48461 -1.373842,1.19888 l 0.0014,0.78304 4.893366,0.0608 c 2.691351,0.0334 5.62783,0.0929 6.525508,0.13229 1.318841,0.0578 1.687488,-0.0173 1.920471,-0.39148 0.210142,-0.33746 0.207605,-0.46302 -0.0094,-0.46302 -0.172098,0 -0.236418,-0.23429 -0.152461,-0.55534 0.07987,-0.30544 0.07414,-0.48425 -0.01274,-0.39737 -0.08689,0.0869 -0.348424,-0.15689 -0.581197,-0.54173 -0.37816,-0.62519 -0.591849,-0.70261 -2.006917,-0.72711 -1.505574,-0.0261 -1.583694,-0.06 -1.583694,-0.68887 0,-0.61059 0.105843,-0.66757 1.376318,-0.74099 1.715354,-0.0991 2.88478,0.46249 3.35834,1.61284 0.779148,1.89266 1.471589,4.40641 1.321523,4.79747 -0.08782,0.22885 -0.0397,0.4161 0.106936,0.4161 0.146635,0 0.37323,0.44648 0.503545,0.99218 l 0.236939,0.99219 1.47904,-0.0896 c 0.876707,-0.0531 1.551533,0.0277 1.657043,0.19844 0.0979,0.15841 0.413293,0.28802 0.700865,0.28802 0.945457,0 3.316182,1.89843 3.003175,2.40489 -0.08636,0.13973 -5.29e-4,0.22134 0.190783,0.18135 0.676616,-0.14144 1.543619,2.14761 1.543619,4.07543 0,1.84048 -0.63949,3.78364 -1.142815,3.47257 -0.146682,-0.0906 -0.178824,-0.0275 -0.07308,0.14363 0.103833,0.168 0.107347,0.43723 0.0078,0.59829 -0.126161,0.20413 -0.249875,0.1841 -0.40844,-0.0661 -0.178845,-0.28225 -0.228325,-0.26321 -0.23151,0.0891 -0.0021,0.24643 -0.358812,0.65763 -0.792412,0.91376 -0.448254,0.26479 -0.668493,0.53978 -0.510508,0.63741 0.152816,0.0944 -0.17703,0.37592 -0.732996,0.6255 -0.555964,0.24957 -1.265508,0.57782 -1.576764,0.72943 -0.544438,0.26521 -1.855615,0.19593 -3.788574,-0.20018 -0.636881,-0.13051 -1.420812,-0.70091 -2.579686,-1.87703 -1.524593,-1.54727 -2.151241,-2.50901 -1.334047,-2.04741 0.181902,0.10275 0.05332,-0.0823 -0.285733,-0.41127 -0.460471,-0.44674 -0.575602,-0.77461 -0.454984,-1.29568 0.120242,-0.51945 0.09358,-0.59624 -0.104385,-0.30072 -0.401862,0.59989 -0.04512,-2.33339 0.407095,-3.34727 0.204524,-0.45856 0.371862,-0.94612 0.371862,-1.08348 0,-0.39521 0.947728,-1.14791 1.167999,-0.92764 0.109458,0.10946 0.159327,0.076 0.11082,-0.0743 -0.0937,-0.29033 1.372885,-1.84534 1.908923,-2.02401 0.383844,-0.12795 0.08744,-1.80374 -0.319037,-1.80374 -0.145336,0 -0.713761,0.48206 -1.263166,1.07124 -0.549405,0.58918 -1.162347,1.03567 -1.362093,0.99219 -0.207679,-0.0452 -0.402751,0.18107 -0.455608,0.52849 -0.05084,0.33415 -0.678743,1.21266 -1.395344,1.95224 -0.716601,0.73958 -1.302911,1.4683 -1.302911,1.61936 0,0.15107 -0.07547,0.1992 -0.167723,0.10695 -0.188228,-0.18823 -1.280514,0.59607 -1.400451,1.00557 -0.105106,0.35886 -1.12852,1.81331 -1.416229,2.01271 -0.127475,0.0883 -1.015126,0.18218 -1.972559,0.20852 -1.970842,0.0542 -2.186789,0.13307 -2.186789,0.79846 0,0.2612 -0.279933,0.77697 -0.622074,1.14614 -0.342142,0.36918 -0.69669,0.86568 -0.787886,1.10333 -0.0912,0.23765 -0.43634,0.54075 -0.766987,0.67355 -0.330648,0.1328 -0.445323,0.249 -0.254834,0.25823 0.19049,0.009 0.280381,0.1235 0.199759,0.25395 -0.238964,0.38665 -2.2395,1.35032 -2.803209,1.35032 -0.28656,0 -0.521019,0.0938 -0.521019,0.20836 0,0.34174 -1.898479,0.27744 -3.152596,-0.10678 z m 4.914535,-2.02905 c 0.595409,-0.37587 1.319711,-0.98488 1.609561,-1.35337 0.289851,-0.36848 0.621427,-0.58471 0.736837,-0.4805 0.11541,0.1042 0.125709,0.0431 0.02289,-0.1358 -0.102821,-0.17889 -0.06621,-0.55086 0.08136,-0.82659 0.210709,-0.39372 0.146775,-0.60788 -0.297828,-0.99766 -0.311373,-0.27298 -0.479109,-0.34749 -0.372746,-0.16559 0.149842,0.25626 -0.461946,0.33073 -2.71703,0.33073 -1.600729,0 -2.968105,-0.0933 -3.038612,-0.20743 -0.16192,-0.26199 1.10343,-3.48769 1.587423,-4.04674 0.198894,-0.22974 0.361626,-0.61669 0.361626,-0.8599 0,-0.2432 0.110332,-0.44218 0.245183,-0.44218 0.356914,0 0.483862,-0.85799 0.198307,-1.34028 -0.197212,-0.33308 -0.510887,-0.37697 -1.601146,-0.22402 -3.684807,0.51693 -5.420713,2.31752 -5.634773,5.84473 -0.04355,0.71766 0.08852,1.55146 0.314318,1.98438 0.214189,0.41065 0.390167,0.87212 0.391064,1.02547 0.0026,0.44457 1.635705,1.88802 2.647463,2.34001 1.420461,0.63457 4.101491,0.41618 5.466106,-0.44526 z m 22.985732,0.18492 c 0.431427,-0.27853 1.001766,-0.68501 1.267421,-0.90329 0.574945,-0.47241 1.501576,-2.28948 1.501576,-2.9445 0,-0.25512 0.105207,-0.52887 0.233794,-0.60834 0.340072,-0.21018 0.181295,-1.45456 -0.333065,-2.61037 -0.2457,-0.5521 -0.365014,-1.13605 -0.265139,-1.29765 0.113506,-0.18366 0.06039,-0.21891 -0.141685,-0.094 -0.205737,0.12715 -0.376116,-0.002 -0.468614,-0.356 -0.07994,-0.30568 -0.261504,-0.55578 -0.403479,-0.55578 -0.141975,0 -0.538472,-0.22051 -0.881105,-0.49003 -0.342633,-0.26951 -1.354889,-0.64535 -2.249464,-0.83519 -1.358371,-0.28827 -1.66298,-0.28614 -1.847807,0.0129 -0.310455,0.50233 -0.178893,1.96065 0.220263,2.44161 0.183718,0.22137 0.310631,0.50432 0.282027,0.62877 -0.02861,0.12446 0.08533,0.55896 0.253188,0.96556 0.576331,1.39605 0.633775,1.9593 0.216154,2.11956 -0.526151,0.2019 -0.801294,-0.18755 -1.365473,-1.93279 -0.25873,-0.80036 -0.532844,-1.62357 -0.609137,-1.82934 -0.09529,-0.25701 -0.02111,-0.31299 0.236974,-0.17881 0.210106,0.10923 0.185219,0.038 -0.05646,-0.16164 -0.237683,-0.19632 -0.477176,-0.59073 -0.532207,-0.87647 -0.147198,-0.76434 -0.811128,-0.76675 -1.695558,-0.006 -0.428817,0.36878 -0.868963,0.67065 -0.978104,0.67083 -0.109141,1.8e-4 -0.198438,0.17892 -0.198438,0.3972 0,0.21828 -0.126089,0.39687 -0.280198,0.39687 -0.154109,0 -0.20339,0.12428 -0.109514,0.27618 0.09388,0.15189 0.02191,0.45543 -0.159928,0.67453 -0.51178,0.61666 -0.389723,3.27589 0.212133,4.62166 0.597012,1.33493 1.133927,1.87771 2.609545,2.63804 1.346166,0.69363 4.352084,0.60502 5.542299,-0.16337 z m -8.956513,-3.59873 c -0.08446,-0.21107 -0.147157,-0.14837 -0.159852,0.15985 -0.01149,0.27892 0.05105,0.43519 0.138964,0.34727 0.08792,-0.0879 0.09732,-0.31612 0.02089,-0.50712 z m -11.271312,-1.5026 c 0.422519,-0.0967 -0.445825,-3.19511 -1.056499,-3.76981 -0.774423,-0.72881 -1.607537,-1.06482 -2.185383,-0.88142 -0.304772,0.0967 -0.436009,0.25215 -0.291637,0.34539 0.275085,0.17764 -1.134336,3.53631 -1.551518,3.69729 -0.125708,0.0485 -0.228559,0.19189 -0.228559,0.31864 0,0.27134 4.356011,0.509 5.313596,0.28991 z m 2.723599,-0.17804 c 0.08597,-0.22404 0.04814,-0.61099 -0.08406,-0.8599 -0.290328,-0.54662 -0.91824,-2.22892 -1.642859,-4.40154 -0.294832,-0.884 -0.704164,-1.98245 -0.909626,-2.441 -0.205461,-0.45856 -0.373566,-0.96458 -0.373566,-1.12448 0,-0.15991 -0.112311,-0.29075 -0.249581,-0.29075 -0.360036,0 -1.073336,1.09412 -1.073336,1.64637 0,0.25867 -0.119063,0.4703 -0.264583,0.4703 -0.634009,0 -0.147881,1.02638 1.062597,2.24351 1.326171,1.33345 2.416276,3.55502 1.765614,3.59821 -0.226152,0.015 -0.221635,0.0584 0.01606,0.15434 0.181901,0.0734 0.330729,0.34181 0.330729,0.59647 0,0.25467 0.07937,0.5424 0.176389,0.63941 0.323373,0.32338 1.087876,0.1817 1.246222,-0.23094 z m 2.535643,-0.63139 c 0.425749,-0.79552 3.790631,-4.25294 4.139107,-4.25294 0.171567,0 0.383738,-0.26789 0.471491,-0.59532 0.08775,-0.32742 0.874567,-1.33807 1.748475,-2.24588 0.873908,-0.90782 1.588923,-1.81173 1.588923,-2.0087 0,-0.28929 -1.178192,-0.36829 -6.129114,-0.41101 -6.586999,-0.0568 -6.797478,-0.0138 -6.161919,1.25808 0.909522,1.82021 1.983868,5.14241 1.834904,5.67407 -0.112793,0.40256 -0.08701,0.46982 0.08505,0.22184 0.189378,-0.27293 0.284116,-0.20767 0.406521,0.28003 0.57158,2.27735 1.434523,3.16737 2.016558,2.07983 z m -16.922838,-0.94565 c 0.189851,-0.22876 0.215566,-0.39688 0.0607,-0.39688 -0.14777,0 -0.337206,0.1786 -0.420968,0.39688 -0.08376,0.21828 -0.111079,0.39687 -0.0607,0.39687 0.05037,0 0.23981,-0.17859 0.420968,-0.39687 z"
         style="fill:#000000;stroke-width:0.26458335" />
    </g>
  </g>
</svg>
