<?xml version="1.0" encoding="UTF-8" standalone="no"?>
<svg
   xmlns:dc="http://purl.org/dc/elements/1.1/"
   xmlns:cc="http://creativecommons.org/ns#"
   xmlns:rdf="http://www.w3.org/1999/02/22-rdf-syntax-ns#"
   xmlns:svg="http://www.w3.org/2000/svg"
   xmlns="http://www.w3.org/2000/svg"
   xmlns:sodipodi="http://sodipodi.sourceforge.net/DTD/sodipodi-0.dtd"
   xmlns:inkscape="http://www.inkscape.org/namespaces/inkscape"
   id="svg8"
   version="1.1"
   viewBox="0 0 75.670831 75.670831"
   height="286"
   width="286"
   sodipodi:docname="pomost.svg"
   inkscape:version="0.92.4 5da689c313, 2019-01-14">
  <sodipodi:namedview
     pagecolor="#ffffff"
     bordercolor="#666666"
     borderopacity="1"
     objecttolerance="10"
     gridtolerance="10"
     guidetolerance="10"
     inkscape:pageopacity="0"
     inkscape:pageshadow="2"
     inkscape:window-width="1920"
     inkscape:window-height="1020"
     id="namedview13102"
     showgrid="false"
     inkscape:zoom="0.82517483"
     inkscape:cx="-75.741525"
     inkscape:cy="143"
     inkscape:window-x="0"
     inkscape:window-y="0"
     inkscape:window-maximized="1"
     inkscape:current-layer="layer30" />
  <defs
     id="defs2" />
  <metadata
     id="metadata5">
    <rdf:RDF>
      <cc:Work
         rdf:about="">
        <dc:format>image/svg+xml</dc:format>
        <dc:type
           rdf:resource="http://purl.org/dc/dcmitype/StillImage" />
        <dc:title />
      </cc:Work>
    </rdf:RDF>
  </metadata>
  <g
     inkscape:groupmode="layer"
     id="layer30"
     inkscape:label="Layer 1">
    <rect
       style="display:inline;fill:#ffffff;fill-rule:evenodd;stroke-width:0.26458332"
       id="rect1982"
       width="68.708389"
       height="68.616776"
       x="3.1745098"
       y="3.624944"
       rx="5.4282708"
       ry="5.9669361" />
  </g>
  <g
     inkscape:groupmode="layer"
     id="layer31"
     inkscape:label="Layer 2">
    <g
       style=""
       transform="translate(0,-221.32918)"
       id="layer1">
      <rect
         ry="5.9669409"
         rx="5.4282579"
         y="224.42496"
         x="2.6453431"
         height="70.38015"
         width="70.38015"
         id="rect815"
         style="fill:none;fill-rule:evenodd;stroke:#000080;stroke-width:5.29068613;stroke-miterlimit:4;stroke-dasharray:none;stroke-opacity:1" />
      <path
         id="path2903"
         d="m 34.274695,284.16543 c -2.816358,-0.25018 -5.347993,-0.899 -5.662136,-1.45111 -0.116372,-0.20452 -0.48819,-0.37186 -0.826263,-0.37186 -0.714676,0 -2.686405,-0.82983 -3.612942,-1.52055 -0.352482,-0.26278 -0.968299,-0.64358 -1.368482,-0.84624 -0.400182,-0.20265 -0.727604,-0.46741 -0.727604,-0.58834 0,-0.12093 -0.128812,-0.21987 -0.286249,-0.21987 -0.444222,0 -4.476251,-4.16137 -4.476251,-4.61984 0,-0.22398 -0.125138,-0.40724 -0.278084,-0.40724 -0.152946,0 -0.45945,-0.43408 -0.681121,-0.96461 -0.22167,-0.53053 -0.575558,-1.13712 -0.786417,-1.34798 -0.543056,-0.54306 -0.987368,-1.49499 -1.760968,-3.77283 -0.882216,-2.59766 -1.003474,-3.1588 -1.244523,-5.7592 -0.29716,-3.20574 0.18136,-7.59548 1.05945,-9.71893 0.120352,-0.29104 0.293859,-0.79705 0.385572,-1.12447 0.09171,-0.32743 0.27779,-0.59532 0.413504,-0.59532 0.135715,0 0.246754,-0.23252 0.246754,-0.51671 0,-0.88946 1.361327,-3.31745 2.380525,-4.24579 0.07988,-0.0728 0.335248,-0.43171 0.567481,-0.79767 1.942251,-3.06068 7.238993,-7.40386 9.575372,-7.85153 0.460944,-0.0883 1.135736,-0.36137 1.499539,-0.60676 2.096545,-1.41417 8.676569,-2.39574 12.567708,-1.87479 2.421728,0.32423 5.44853,1.04458 5.688541,1.35382 0.07276,0.0937 0.48948,0.2514 0.926042,0.35032 1.045493,0.23691 2.771249,1.03955 2.77509,1.29068 0.0016,0.10914 0.1324,0.19843 0.29051,0.19843 0.683334,0 3.614775,2.32516 5.839719,4.63193 2.46869,2.55949 5.023485,7.15149 5.417767,9.73792 0.09292,0.60955 0.271979,1.23981 0.397905,1.40057 0.234757,0.29969 0.585232,3.37351 0.600191,5.26396 0.0109,1.37676 -1.042477,7.18338 -1.484654,8.18405 -2.162831,4.89454 -5.488545,9.67532 -6.730568,9.67532 -0.437611,0 -0.623668,0.15085 -0.623668,0.50565 0,0.2781 -0.386953,0.81568 -0.859896,1.19461 -0.472943,0.37893 -1.0037,0.80624 -1.179457,0.94956 -0.17576,0.14333 -0.413885,0.26391 -0.529167,0.26796 -0.115284,0.004 -0.677299,0.36123 -1.248926,0.79375 -0.571627,0.43251 -1.256236,0.78639 -1.521354,0.78639 -0.265118,0 -0.482034,0.10581 -0.482034,0.23514 0,0.12932 -0.416718,0.31331 -0.926041,0.40886 -0.509323,0.0956 -0.926042,0.26187 -0.926042,0.36961 0,0.18823 -3.804086,1.17874 -4.894792,1.27451 -0.291041,0.0256 -1.170495,0.17603 -1.954342,0.33438 -1.568002,0.31677 -1.93301,0.31639 -5.559689,-0.006 z m -7.072523,-7.97453 c 0.08774,-0.32743 0.162986,-1.54782 0.167202,-2.71198 0.0042,-1.16417 0.118524,-2.29197 0.254021,-2.50622 0.281213,-0.44468 -0.129671,-0.42509 11.704206,-0.55797 4.612733,-0.0518 8.440362,-0.0384 8.505836,0.0298 0.06548,0.0682 0.168801,1.37413 0.229611,2.9021 l 0.110564,2.77812 1.6692,0.13409 c 1.326775,0.10658 1.703142,0.0523 1.834642,-0.26459 0.292521,-0.7049 0.18704,-9.41802 -0.118848,-9.81723 -0.156358,-0.20406 -0.502631,-1.11516 -0.769495,-2.02467 l -0.485207,-1.65364 H 37.810483 c -9.685377,0 -12.549459,0.0743 -12.742743,0.33073 -0.246379,0.32682 -0.469294,1.02358 -1.261612,3.94332 -0.408979,1.50712 -0.592644,8.68989 -0.245344,9.59493 0.122841,0.32012 0.551027,0.41852 1.821225,0.41852 1.49847,0 1.676203,-0.0581 1.820163,-0.59531 z m 22.656346,-14.91689 c 0,-0.0915 -0.316664,-1.10154 -0.703696,-2.24453 -0.467784,-1.38148 -0.866937,-2.12998 -1.190625,-2.23272 -0.267812,-0.085 -0.486929,-0.39843 -0.486929,-0.69652 0,-0.29808 -0.207084,-1.12502 -0.460184,-1.83765 l -0.460185,-1.29568 -8.957201,0.0695 -8.9572,0.0695 -0.344833,1.00328 c -0.189659,0.5518 -0.420448,1.40634 -0.512867,1.89897 -0.09242,0.49263 -0.282022,0.93413 -0.421342,0.9811 -0.246675,0.0832 -1.078204,2.2615 -1.421328,3.72342 l -0.170775,0.72761 h 12.043583 c 6.623971,0 12.043582,-0.0749 12.043582,-0.16637 z m -4.411731,-10.78584 c -0.02641,-0.74175 -0.195951,-1.38992 -0.396875,-1.51731 -0.192924,-0.12231 -3.657701,-0.2242 -7.699505,-0.22643 l -7.348736,-0.004 -0.240746,0.63321 c -0.132411,0.34826 -0.321635,1.06438 -0.420498,1.59136 l -0.179751,0.95816 8.166108,-0.07 8.166109,-0.07 z m -1.00366,-3.13686 c -0.461796,-1.72485 -0.798841,-2.72592 -0.95762,-2.84427 -0.09762,-0.0728 -0.345289,-0.7276 -0.550373,-1.45521 l -0.372877,-1.32291 -3.826349,0.0518 c -2.104491,0.0285 -4.445342,0.0582 -5.20189,0.0661 l -1.375543,0.0144 -0.440464,1.52135 c -0.242255,0.83675 -0.622588,2.04626 -0.845183,2.68781 -0.644497,1.85752 -0.573136,1.87626 7.147839,1.87626 h 6.581845 z"
         style="fill:#000080;stroke-width:0.26458332" />
    </g>
  </g>
</svg>
