<?xml version="1.0" encoding="UTF-8" standalone="no"?>
<svg
   xmlns:dc="http://purl.org/dc/elements/1.1/"
   xmlns:cc="http://creativecommons.org/ns#"
   xmlns:rdf="http://www.w3.org/1999/02/22-rdf-syntax-ns#"
   xmlns:svg="http://www.w3.org/2000/svg"
   xmlns="http://www.w3.org/2000/svg"
   id="svg8"
   version="1.1"
   viewBox="0 0 75.670831 75.670831"
   height="286"
   width="286">
  <defs
     id="defs2" />
  <metadata
     id="metadata5">
    <rdf:RDF>
      <cc:Work
         rdf:about="">
        <dc:format>image/svg+xml</dc:format>
        <dc:type
           rdf:resource="http://purl.org/dc/dcmitype/StillImage" />
        <dc:title></dc:title>
      </cc:Work>
    </rdf:RDF>
  </metadata>
  <g
     transform="translate(0,-221.32918)"
     id="layer1">
    <flowRoot
       transform="matrix(0.26458333,0,0,0.26458333,11.759859,233.35631)"
       style="font-style:normal;font-variant:normal;font-weight:800;font-stretch:normal;font-size:133.33333501px;line-height:1.25;font-family:Cantarell;-inkscape-font-specification:'Cantarell, Ultra-Bold';font-variant-ligatures:normal;font-variant-caps:normal;font-variant-numeric:normal;font-feature-settings:normal;text-align:center;letter-spacing:0px;word-spacing:0px;writing-mode:lr;text-anchor:middle;fill:#000000;fill-opacity:1;stroke:none;"
       id="flowRoot3079"
       xml:space="preserve"><flowRegion
         style="-inkscape-font-specification:'Cantarell, Ultra-Bold';font-family:Cantarell;font-weight:800;font-style:normal;font-stretch:normal;font-variant:normal;font-size:133.33333501px;text-anchor:middle;text-align:center;writing-mode:lr;font-variant-ligatures:normal;font-variant-caps:normal;font-variant-numeric:normal;font-feature-settings:normal;"
         id="flowRegion3081"><rect
           style="-inkscape-font-specification:'Cantarell, Ultra-Bold';font-family:Cantarell;font-weight:800;font-style:normal;font-stretch:normal;font-variant:normal;font-size:133.33333501px;text-anchor:middle;text-align:center;writing-mode:lr;font-variant-ligatures:normal;font-variant-caps:normal;font-variant-numeric:normal;font-feature-settings:normal;"
           y="41.543083"
           x="26.769043"
           height="123.23862"
           width="171.72595"
           id="rect3083" /></flowRegion><flowPara
         id="flowPara3085">WC</flowPara></flowRoot>    <path
       id="path3266"
       d="m 34.071317,290.00335 c 0.285983,-2.50018 0.519989,-5.53008 0.519989,-6.73307 0,-2.00721 0.246538,-2.24319 2.994695,-2.86647 1.64708,-0.37355 3.230397,-0.48525 3.518481,-0.24823 0.28808,0.23702 0.719765,3.57256 0.95929,7.41226 l 0.4355,6.98129 H 38.0253 33.551329 Z m -4.205395,-10.31568 c -5.282924,-0.90922 -6.419955,-1.88755 -13.442926,-11.56675 -3.342272,-4.60638 -3.449463,-8.83677 -0.398643,-15.73254 1.367606,-3.0912 2.486558,-6.85848 2.486558,-8.37176 0,-2.79159 4.113428,-10.07105 5.69089,-10.07105 0.407698,0 0.741268,-1.16709 0.741268,-2.59355 0,-3.15808 2.100855,-5.36045 6.026717,-6.31789 2.249183,-0.54856 3.897724,-0.47958 8.562156,0.3582 6.658623,1.19595 10.536728,3.32315 11.989716,6.57657 0.521475,1.16766 2.023236,3.62745 3.337245,5.46622 2.131354,2.98252 2.35546,3.79193 2.077272,7.50227 -0.268782,3.58492 -0.05691,4.43691 1.534675,6.17157 2.582574,2.81476 3.672975,6.27172 3.309345,10.49179 -0.29197,3.38852 -0.886541,4.61867 -6.152178,12.7288 -2.102114,3.23767 -6.084131,4.88764 -11.388475,4.71888 -2.432161,-0.0775 -5.507535,0.0613 -6.834168,0.30832 -4.209498,0.7836 -4.766829,0.80809 -7.539452,0.33092 z"
       style="fill:#000000;stroke-width:0.69116592" />
  </g>
</svg>
