<?xml version="1.0" encoding="UTF-8" standalone="no"?>
<svg
   xmlns:dc="http://purl.org/dc/elements/1.1/"
   xmlns:cc="http://creativecommons.org/ns#"
   xmlns:rdf="http://www.w3.org/1999/02/22-rdf-syntax-ns#"
   xmlns:svg="http://www.w3.org/2000/svg"
   xmlns="http://www.w3.org/2000/svg"
   xmlns:sodipodi="http://sodipodi.sourceforge.net/DTD/sodipodi-0.dtd"
   xmlns:inkscape="http://www.inkscape.org/namespaces/inkscape"
   viewBox="0 0 286 286"
   height="286"
   width="286"
   id="svg64"
   version="1.1"
   sodipodi:docname="plac zabaw.svg"
   inkscape:version="0.92.4 5da689c313, 2019-01-14">
  <sodipodi:namedview
     pagecolor="#ffffff"
     bordercolor="#666666"
     borderopacity="1"
     objecttolerance="10"
     gridtolerance="10"
     guidetolerance="10"
     inkscape:pageopacity="0"
     inkscape:pageshadow="2"
     inkscape:window-width="1920"
     inkscape:window-height="1020"
     id="namedview1502"
     showgrid="false"
     inkscape:zoom="0.58348671"
     inkscape:cx="260.69426"
     inkscape:cy="-45.920241"
     inkscape:window-x="0"
     inkscape:window-y="0"
     inkscape:window-maximized="1"
     inkscape:current-layer="layer22" />
  <metadata
     id="metadata70">
    <rdf:RDF>
      <cc:Work
         rdf:about="">
        <dc:format>image/svg+xml</dc:format>
        <dc:type
           rdf:resource="http://purl.org/dc/dcmitype/StillImage" />
        <dc:title />
      </cc:Work>
    </rdf:RDF>
  </metadata>
  <defs
     id="defs68" />
  <g
     inkscape:groupmode="layer"
     id="layer22"
     inkscape:label="Layer 1">
    <rect
       style="display:inline;fill:#ffffff;fill-rule:evenodd;stroke-width:1"
       id="rect1982"
       width="259.68527"
       height="259.33899"
       x="9.998147"
       y="12.662834"
       rx="20.5163"
       ry="22.5522" />
  </g>
  <g
     inkscape:groupmode="layer"
     id="layer23"
     inkscape:label="Layer 2">
    <g
       id="g11213"
       style="">
      <path
         sodipodi:nodetypes="sssscsscssccscsscscccscssssccccsssssccscccscccscsscscccscscscsscccscccccccscsccc"
         inkscape:connector-curvature="0"
         style="fill:#000000"
         d="m 176.28779,208.30318 c -2.95127,-2.06715 -2.8575,-5.4279 0.46076,-16.51296 1.77926,-5.94386 2.34816,-9.29891 1.6886,-9.95847 -0.54707,-0.54707 -11.31704,-4.53358 -23.93327,-8.8589 -12.61623,-4.32533 -28.45324,-9.76752 -35.19336,-12.09376 -6.74012,-2.32625 -12.82357,-4.01126 -13.51879,-3.74448 -0.69522,0.26678 -3.03427,4.8653 -5.19788,10.21893 -4.285859,10.60488 -6.388914,12.65542 -11.215273,10.93521 -4.659222,-1.66063 -5.030892,-3.55738 -2.482762,-12.67016 1.27012,-4.54229 2.541338,-9.85424 2.824933,-11.80434 l 0.515627,-3.54564 -8.74152,-3.32049 c -4.80783,-1.82628 -12.38383,-4.56402 -16.83554,-6.08388 -16.42914,-5.60907 -16.73844,-5.79552 -16.39667,-9.884 0.24078,-2.88032 0.76257,-3.68568 2.55264,-3.93991 1.8385,-0.26111 2.25,-0.95268 2.25,-3.78139 0,-1.94244 0.57853,-3.68383 1.31816,-3.96765 0.72499,-0.27821 8.26249,1.95121 16.75,4.95427 37.343065,13.21274 36.732035,12.9385 37.017835,16.61432 0.0641,0.825 0.0452,2.86274 -0.0422,4.52831 -0.13591,2.59123 0.32879,3.20464 3.21968,4.25 1.85818,0.67193 4.44508,1.22169 5.74865,1.22169 2.1161,0 2.19195,-0.13397 0.70763,-1.25 -1.45581,-1.09459 -4.81748,-7.75207 -12.59302,-24.93936 -1.16681,-2.57914 -2.46275,-4.90027 -2.87987,-5.15807 -0.41713,-0.2578 -2.555811,0.44538 -4.752637,1.56261 -12.667038,6.44203 -11.363988,6.07425 -15.861418,4.47675 -7.91672,-2.81205 -24.87085,-9.59663 -25.46437,-10.19016 -0.97859,-0.97858 1.2275,-3.70713 4.38311,-5.42115 1.62165,-0.88082 6.77345,-3.9213 11.44845,-6.75663 13.83335,-8.389727 24.999451,-13.438067 28.998335,-13.110527 3.47846,0.28492 3.53366,0.36609 9.7136,14.286537 3.41839,7.7 7.33603,16.475 8.70586,19.5 6.9073,15.25344 8.5822,19.32655 8.5822,20.87071 0,2.89426 -2.96397,6.12929 -5.61572,6.12929 -6.8317,0 2.12151,3.75376 35.58543,14.9197 11.67067,3.89416 21.96435,7.07745 22.87485,7.07398 0.91049,-0.003 2.45312,-1.40769 3.42807,-3.12048 1.57278,-2.76304 2.13651,-3.0425 5,-2.4787 4.62471,0.91057 50.06027,15.70708 51.0796,16.63454 0.46872,0.42647 -0.17074,2.15904 -1.42102,3.85014 -1.83179,2.47762 -2.07343,3.51614 -1.24434,5.34777 1.33261,2.944 -0.30471,6.77305 -2.89618,6.77305 -1.04703,0 -9.35302,-2.48003 -18.45775,-5.51119 -9.10474,-3.03115 -17.94124,-5.61865 -19.63666,-5.75 -2.99291,-0.23186 -3.18919,0.0209 -6.74601,8.68584 -4.84833,11.81129 -8.45875,14.70921 -13.72776,11.01865 z m -35.72251,-0.47643 c -3.85,-0.39515 -10.31064,-0.77434 -14.35699,-0.84266 -6.1574,-0.10396 -7.2614,-0.3733 -6.77076,-1.65189 1.02621,-2.67427 19.07965,-28.37022 20.27726,-28.86119 0.63497,-0.2603 4.73892,5.04428 9.16834,11.85056 9.42152,14.47719 11.47798,18.25064 10.664,19.56768 -0.66097,1.06947 -8.1945,1.04466 -18.98185,-0.0625 z m 94,-29.01032 c -2.75,-1.00093 -9.08831,-3.23566 -14.08513,-4.96608 l -9.08512,-3.14621 -3.28071,-8.02396 c -3.14192,-7.68449 -3.39762,-8.00058 -6.04409,-7.47129 -1.51985,0.30397 -8.46904,3.31849 -15.44264,6.69893 -11.74555,5.69364 -12.89682,6.05614 -15.63351,4.92257 -6.27586,-2.59955 -4.63219,-9.86119 3.09705,-13.68254 23.82901,-11.7811 35.25913,-17.52416 39.51204,-19.8528 7.42696,-4.06656 9.30658,-3.23496 14.2498,6.30457 2.46653,11.94509 27.27255,46.65898 6.71231,39.21681 z m -34,-48.88204 c -4.56808,-2.0376 -7.5,-6.99223 -7.5,-12.67418 0,-4.2033 1.29534,-6.87075 4.86277,-10.01369 4.05618,-3.57355 12.45136,-3.31613 17.08242,0.52381 3.14945,2.61142 3.47966,3.40316 3.84675,9.2231 0.34455,5.46274 0.0801,6.77401 -1.86309,9.23763 -2.34323,2.97081 -7.53557,5.6815 -10.64673,5.55818 -0.98017,-0.0388 -3.58212,-0.87353 -5.78212,-1.85485 z m -84.52349,-25.35631 c -7.79728,-6.234777 -7.96372,-16.650097 -0.36163,-22.629897 2.71813,-2.13808 8.22162,-2.63033 13.37388,-1.19618 4.05822,1.12961 7.01124,6.54426 7.01124,12.85577 0,4.86711 -0.36481,5.81693 -3.4,8.852107 -3.10314,3.10314 -3.91078,3.39722 -9.25,3.3682 -3.2175,-0.0175 -6.53557,-0.58 -7.37349,-1.25 z"
         id="path183" />
      <rect
         ry="22.552217"
         rx="20.516251"
         y="9.9981508"
         x="9.998147"
         height="266.00369"
         width="266.00369"
         id="rect815"
         style="fill:none;fill-rule:evenodd;stroke:#000080;stroke-width:19.99629402;stroke-miterlimit:4;stroke-dasharray:none;stroke-opacity:1" />
    </g>
  </g>
</svg>
