<?xml version="1.0" encoding="UTF-8" standalone="no"?>
<svg
   xmlns:dc="http://purl.org/dc/elements/1.1/"
   xmlns:cc="http://creativecommons.org/ns#"
   xmlns:rdf="http://www.w3.org/1999/02/22-rdf-syntax-ns#"
   xmlns:svg="http://www.w3.org/2000/svg"
   xmlns="http://www.w3.org/2000/svg"
   xmlns:sodipodi="http://sodipodi.sourceforge.net/DTD/sodipodi-0.dtd"
   xmlns:inkscape="http://www.inkscape.org/namespaces/inkscape"
   id="svg8"
   version="1.1"
   viewBox="0 0 75.670831 75.670831"
   height="286"
   width="286"
   sodipodi:docname="recepcja.svg"
   inkscape:version="0.92.4 5da689c313, 2019-01-14">
  <sodipodi:namedview
     pagecolor="#ffffff"
     bordercolor="#666666"
     borderopacity="1"
     objecttolerance="10"
     gridtolerance="10"
     guidetolerance="10"
     inkscape:pageopacity="0"
     inkscape:pageshadow="2"
     inkscape:window-width="1920"
     inkscape:window-height="1020"
     id="namedview13705"
     showgrid="false"
     inkscape:zoom="0.82517483"
     inkscape:cx="-75.741525"
     inkscape:cy="143"
     inkscape:window-x="0"
     inkscape:window-y="0"
     inkscape:window-maximized="1"
     inkscape:current-layer="layer32" />
  <defs
     id="defs2" />
  <metadata
     id="metadata5">
    <rdf:RDF>
      <cc:Work
         rdf:about="">
        <dc:format>image/svg+xml</dc:format>
        <dc:type
           rdf:resource="http://purl.org/dc/dcmitype/StillImage" />
        <dc:title />
      </cc:Work>
    </rdf:RDF>
  </metadata>
  <g
     inkscape:groupmode="layer"
     id="layer32"
     inkscape:label="Layer 1">
    <rect
       style="display:inline;fill:#ffffff;fill-rule:evenodd;stroke-width:0.26458332"
       id="rect1982"
       width="68.708389"
       height="68.616776"
       x="3.1745098"
       y="3.8008246"
       rx="5.4282708"
       ry="5.9669361" />
  </g>
  <g
     inkscape:groupmode="layer"
     id="layer33"
     inkscape:label="Layer 2">
    <g
       style=""
       transform="translate(0,-221.32918)"
       id="layer1">
      <rect
         ry="5.9669409"
         rx="5.4282579"
         y="224.42496"
         x="2.6453431"
         height="70.38015"
         width="70.38015"
         id="rect815"
         style="fill:none;fill-rule:evenodd;stroke:#000080;stroke-width:5.29068613;stroke-miterlimit:4;stroke-dasharray:none;stroke-opacity:1" />
      <path
         id="path2092"
         d="m 12.775773,274.57361 c 0.110346,-0.34894 0.527493,-1.34881 0.926995,-2.22194 1.277565,-2.79216 1.843287,-4.09163 1.843287,-4.23404 0,-0.0763 0.6574,-1.62435 1.460889,-3.44005 l 1.460889,-3.30128 -0.645482,-1.2738 c -1.215358,-2.3984 -1.152984,-4.02421 0.21392,-5.57594 0.658669,-0.74774 2.564128,-1.62015 3.55099,-1.62581 0.849295,-0.005 1.107303,-0.17312 1.703968,-1.11112 0.604008,-0.94955 0.577913,-2.11316 -0.07127,-3.17791 -0.290498,-0.47646 -0.528623,-1.32454 -0.529167,-1.88462 -0.0013,-1.3457 1.193922,-2.53492 2.60668,-2.59359 1.71705,-0.0713 2.25314,-0.0217 4.403789,0.40793 1.164167,0.23254 3.128698,0.61145 4.365625,0.84202 4.037709,0.75268 5.931117,1.19928 6.876071,1.62186 0.511024,0.22853 1.796883,0.81597 2.857463,1.30541 1.060577,0.48945 2.054238,0.8899 2.208133,0.8899 0.153898,0 0.595839,0.16794 0.982094,0.37319 0.936323,0.49754 2.592027,1.21431 2.805022,1.21431 0.09388,0 1.073071,0.42249 2.175984,0.93885 1.102915,0.51637 3.865615,1.71762 6.139331,2.66944 2.273715,0.95182 4.340611,1.92986 4.593105,2.17341 0.434951,0.41955 0.416274,0.55389 -0.355348,2.55609 -0.447935,1.16229 -1.160537,2.84465 -1.583558,3.73858 -0.423021,0.89393 -0.769131,1.73376 -0.769131,1.86628 0,0.40994 -1.327983,2.9301 -1.711885,3.24871 -0.248336,0.2061 -0.516412,0.2188 -0.847069,0.0401 -0.266065,-0.14377 -1.198129,-0.53216 -2.071254,-0.86309 -0.873125,-0.33093 -1.706562,-0.68531 -1.852083,-0.78751 -0.145521,-0.1022 -1.336146,-0.62788 -2.645833,-1.16818 -2.608774,-1.07623 -3.943401,-1.65736 -6.35,-2.76494 -0.873125,-0.40184 -2.54,-1.11801 -3.704167,-1.59151 -1.164167,-0.47349 -2.432703,-1.08438 -2.818969,-1.35754 -0.386265,-0.27315 -0.780848,-0.49664 -0.87685,-0.49664 -0.096,0 -0.791995,-0.2863 -1.546655,-0.63622 -1.49199,-0.6918 -1.906491,-0.99453 -6.124142,-4.47278 -1.554501,-1.28197 -3.015262,-2.294 -3.246135,-2.24895 -0.230873,0.0451 -0.60309,0.58497 -0.827148,1.19982 -0.385249,1.05719 -0.378535,1.15062 0.123579,1.71979 1.573809,1.78402 1.531266,5.15509 -0.0835,6.61643 -0.671017,0.60726 -2.388025,1.30203 -3.082896,1.24746 -1.001045,-0.0786 -1.093437,-0.008 -1.724257,1.32086 -0.524147,1.104 -0.790492,1.36065 -1.716109,1.65364 l -1.095667,0.34682 -0.03002,1.66791 c -0.02835,1.57534 -0.08545,1.71869 -1.028668,2.58264 -0.989605,0.90645 -0.997329,0.92929 -0.852872,2.52239 l 0.145777,1.60765 -0.917113,0.3832 c -0.504412,0.21075 -1.281582,0.45609 -1.727044,0.54518 -0.758847,0.15177 -0.797277,0.12197 -0.609303,-0.47245 z m 45.480011,-10.88704 c 0.06704,-0.32742 0.192656,-1.32507 0.279146,-2.217 0.127429,-1.31412 0.08018,-1.65126 -0.249145,-1.77763 -0.545912,-0.20949 -1.200147,0.0653 -1.200147,0.50406 0,0.19548 -0.154803,0.45064 -0.344006,0.56701 -0.460269,0.28309 -1.508077,1.80281 -1.508077,2.18729 0,0.16858 0.208359,0.28532 0.46302,0.25941 0.985544,-0.10025 1.359564,0.0333 1.521354,0.54301 0.226547,0.71378 0.886775,0.6717 1.037855,-0.0661 z m -3.470203,-1.46489 c 0.963866,-1.06506 1.68979,-3.95408 0.929896,-3.70078 -0.364847,0.12161 -0.581062,0.48213 -1.154221,1.92452 -0.37992,0.9561 -0.453644,1.01361 -0.763188,0.59532 -0.517967,-0.69994 -0.945763,-0.55629 -0.945763,0.31758 0,1.20873 1.154236,1.72419 1.933276,0.86336 z m -2.321698,-1.6706 c 0.261424,-0.82367 -0.33801,-1.30345 -0.817282,-0.65414 -0.418126,0.56648 -0.503534,0.5353 -0.751927,-0.27453 -0.109855,-0.35816 0.0054,-0.7767 0.321492,-1.167 l 0.492779,-0.60855 0.598138,0.59814 c 0.686221,0.68622 1.233752,0.40581 0.95046,-0.48676 -0.401775,-1.26588 -2.157759,-1.35725 -2.946606,-0.15331 -0.511988,0.78139 -0.546992,2.76152 -0.05434,3.07395 0.190714,0.12094 0.725683,0.22172 1.188818,0.22395 0.625189,0.003 0.8875,-0.13909 1.018471,-0.55175 z m -29.117046,-1.2946 c 0.907397,-0.34499 1.553898,-1.83597 1.199863,-2.76715 -0.196102,-0.51579 -0.442827,-0.67411 -1.050497,-0.67411 -0.548634,0 -0.924188,-0.19839 -1.214604,-0.64162 -0.371463,-0.56693 -0.51143,-0.60989 -1.202309,-0.36905 -1.001642,0.34918 -1.349601,1.01841 -1.248475,2.4012 0.06723,0.91935 0.232404,1.20754 0.979888,1.70968 0.991214,0.66588 1.501332,0.73448 2.536134,0.34105 z m 24.343055,-0.78586 c 0.129432,-0.40781 0.325295,-0.48751 0.910392,-0.3705 0.580718,0.11615 0.840597,0.0133 1.175835,-0.46531 0.579635,-0.82755 0.542131,-1.24465 -0.16496,-1.83453 -1.009753,-0.84236 -1.660493,-0.65713 -2.273597,0.6472 -0.300265,0.63878 -0.62394,1.47222 -0.71928,1.85208 -0.144444,0.57551 -0.08331,0.69066 0.366676,0.69066 0.304331,0 0.611997,-0.22678 0.704934,-0.5196 z m 0.664496,-1.58146 c 0,-0.13693 0.119062,-0.32255 0.264583,-0.41248 0.145521,-0.0899 0.264584,0.0221 0.264584,0.24896 0,0.22687 -0.119063,0.41249 -0.264584,0.41249 -0.145521,0 -0.264583,-0.11203 -0.264583,-0.24897 z m -2.487059,1.26446 c 0.107428,-0.17382 -0.06704,-0.51558 -0.401442,-0.78636 -0.721392,-0.58415 -0.536607,-0.99731 0.368644,-0.82426 0.842004,0.16096 0.876001,-0.32614 0.07246,-1.03825 -0.540178,-0.47871 -0.546304,-0.51055 -0.06615,-0.34375 1.393698,0.48417 1.982396,-0.11791 0.742313,-0.75918 -1.479008,-0.76483 -1.659605,-0.68832 -2.349476,0.99532 -0.352989,0.86147 -0.641795,1.70318 -0.641795,1.87048 0,0.1673 0.386953,0.48879 0.859896,0.71441 1.108509,0.52884 1.188741,0.53856 1.415545,0.17159 z m -2.857524,-1.59757 c 0.520313,-0.52031 0.361892,-1.00542 -0.328343,-1.00542 -0.77774,0 -0.96556,-0.24832 -0.765744,-1.01241 0.168725,-0.64521 0.640398,-0.73072 1.403144,-0.25437 0.644655,0.40259 0.912122,0.1533 0.70802,-0.65991 -0.420156,-1.67404 -2.878643,-1.13989 -3.223893,0.70045 -0.222747,1.18733 0.04707,1.99678 0.761646,2.28494 0.799253,0.3223 1.079936,0.31195 1.44517,-0.0533 z m -18.012298,-3.92859 c 1.039597,-2.08073 1.35486,-2.97826 1.273406,-3.62526 -0.05954,-0.47295 0.0033,-0.8599 0.139693,-0.8599 0.136372,0 0.247949,0.10632 0.247949,0.23628 0,0.49297 0.913778,0.58395 1.249791,0.12443 0.829383,-1.13425 -0.04747,-2.74196 -1.495475,-2.74196 -0.94251,0 -1.606399,0.60922 -1.606399,1.47411 0,0.48747 0.14368,0.64459 0.595312,0.65097 0.54516,0.008 0.557097,0.0375 0.141683,0.35303 -0.249496,0.18954 -0.680166,0.87036 -0.957044,1.51294 -0.276879,0.64258 -0.740491,1.70411 -1.03025,2.35895 -1.129045,2.5516 -1.164699,2.68324 -0.834478,3.08113 0.171663,0.20684 0.443072,0.33661 0.603133,0.28836 0.16006,-0.0482 0.912766,-1.33213 1.672679,-2.85308 z m 14.890214,2.53561 c 0,-0.21316 -0.238125,-0.51501 -0.529166,-0.67077 -0.724667,-0.38783 -0.665001,-0.79375 0.116676,-0.79375 0.837448,0 1.159991,-0.52161 0.439113,-0.71013 -0.305684,-0.0799 -0.555789,-0.31004 -0.555789,-0.51135 0,-0.43873 0.135792,-0.45356 0.816612,-0.0892 0.605915,0.32427 1.070415,0.1221 0.877068,-0.38175 -0.148815,-0.3878 -1.236255,-0.9534 -1.833044,-0.9534 -0.42971,0 -1.292016,1.56018 -1.567278,2.8357 -0.168563,0.78109 -0.111196,0.883 0.695314,1.23519 1.151028,0.50263 1.540494,0.51261 1.540494,0.0395 z m -2.910416,-1.62123 c 0,-0.37722 0.238125,-0.98859 0.529167,-1.35859 0.291041,-0.37 0.529166,-0.8811 0.529166,-1.13579 0,-0.51098 -0.91182,-1.2044 -1.914756,-1.45612 -0.5921,-0.14861 -0.69539,-0.0295 -1.218183,1.40427 -0.53375,1.46386 -0.717821,2.43836 -0.460575,2.43836 0.430033,0 0.947681,-0.3853 0.947681,-0.70538 0,-0.2113 0.119062,-0.3106 0.264583,-0.22066 0.145521,0.0899 0.264584,0.4343 0.264584,0.76526 0,0.68607 0.198437,0.95453 0.705555,0.95453 0.203256,0 0.352778,-0.2907 0.352778,-0.68588 z m -0.79375,-2.48912 c 0,-0.14552 0.119062,-0.26459 0.264583,-0.26459 0.145521,0 0.264584,0.11907 0.264584,0.26459 0,0.14552 -0.119063,0.26458 -0.264584,0.26458 -0.145521,0 -0.264583,-0.11906 -0.264583,-0.26458 z m 6.614583,18.7698 c 0,-0.15411 0.119063,-0.20662 0.264583,-0.11668 0.145521,0.0899 0.264584,0.21603 0.264584,0.2802 0,0.0642 -0.119063,0.11668 -0.264584,0.11668 -0.14552,0 -0.264583,-0.12609 -0.264583,-0.2802 z"
         style="fill:#000080;stroke-width:0.26458332" />
    </g>
  </g>
</svg>
