<?xml version="1.0" encoding="UTF-8" standalone="no"?>
<svg
   xmlns:dc="http://purl.org/dc/elements/1.1/"
   xmlns:cc="http://creativecommons.org/ns#"
   xmlns:rdf="http://www.w3.org/1999/02/22-rdf-syntax-ns#"
   xmlns:svg="http://www.w3.org/2000/svg"
   xmlns="http://www.w3.org/2000/svg"
   xmlns:sodipodi="http://sodipodi.sourceforge.net/DTD/sodipodi-0.dtd"
   xmlns:inkscape="http://www.inkscape.org/namespaces/inkscape"
   id="svg8"
   version="1.1"
   viewBox="0 0 75.670831 75.670831"
   height="286"
   width="286"
   sodipodi:docname="wypożyczalnia sprzętu wodnego.svg"
   inkscape:version="0.92.4 5da689c313, 2019-01-14">
  <sodipodi:namedview
     pagecolor="#ffffff"
     bordercolor="#666666"
     borderopacity="1"
     objecttolerance="10"
     gridtolerance="10"
     guidetolerance="10"
     inkscape:pageopacity="0"
     inkscape:pageshadow="2"
     inkscape:window-width="1920"
     inkscape:window-height="1020"
     id="namedview14925"
     showgrid="false"
     inkscape:zoom="0.82517483"
     inkscape:cx="-75.741525"
     inkscape:cy="143"
     inkscape:window-x="0"
     inkscape:window-y="0"
     inkscape:window-maximized="1"
     inkscape:current-layer="layer34" />
  <defs
     id="defs2" />
  <metadata
     id="metadata5">
    <rdf:RDF>
      <cc:Work
         rdf:about="">
        <dc:format>image/svg+xml</dc:format>
        <dc:type
           rdf:resource="http://purl.org/dc/dcmitype/StillImage" />
        <dc:title />
      </cc:Work>
    </rdf:RDF>
  </metadata>
  <g
     inkscape:groupmode="layer"
     id="layer34"
     inkscape:label="Layer 1">
    <rect
       style="display:inline;fill:#ffffff;fill-rule:evenodd;stroke-width:0.26458332"
       id="rect1982"
       width="68.708389"
       height="68.616776"
       x="3.2726932"
       y="4.2804174"
       rx="5.4282708"
       ry="5.9669361" />
  </g>
  <g
     inkscape:groupmode="layer"
     id="layer35"
     inkscape:label="Layer 2">
    <g
       style=""
       transform="translate(0,-221.32918)"
       id="layer1">
      <rect
         ry="5.9669409"
         rx="5.4282579"
         y="224.42496"
         x="2.6453431"
         height="70.38015"
         width="70.38015"
         id="rect815"
         style="fill:none;fill-rule:evenodd;stroke:#000080;stroke-width:5.29068613;stroke-miterlimit:4;stroke-dasharray:none;stroke-opacity:1" />
      <path
         id="path2188"
         d="m 18.694124,279.45182 c -1.305161,-0.53194 -1.818879,-0.53976 -4.299479,-0.0655 -0.795987,0.15218 -0.859895,0.11205 -0.859895,-0.54002 0,-0.57228 0.210943,-0.80018 1.124479,-1.21485 1.443501,-0.65523 2.362036,-0.65019 4.35809,0.0239 l 1.616568,0.54592 1.077444,-0.54967 c 2.818347,-1.43782 6.375501,-0.56906 6.375501,1.55708 0,0.65194 -0.169422,0.66987 -1.414398,0.14969 -1.305005,-0.54527 -3.076094,-0.49713 -4.866895,0.13229 -1.778175,0.62498 -1.473269,0.62879 -3.111415,-0.0389 z m -5.159374,-5.64358 c 0,-1.53132 0.0585,-2.78422 0.130002,-2.78422 0.0715,0 0.675933,0.41671 1.343183,0.92604 1.291108,0.98552 2.4169,1.17612 3.460877,0.58593 0.312641,-0.17674 1.251491,-0.91666 2.086333,-1.64427 0.834842,-0.7276 1.722369,-1.44198 1.972282,-1.5875 0.249913,-0.14552 1.03747,-0.76955 1.750126,-1.38674 0.712656,-0.61718 2.739317,-2.30601 4.503691,-3.75296 l 3.207952,-2.63081 0.120875,-2.33245 c 0.07916,-1.52743 0.369737,-3.10866 0.841916,-4.58141 0.396572,-1.23693 0.922598,-2.9038 1.168945,-3.70417 0.429137,-1.39423 1.226848,-2.46059 2.286264,-3.05624 0.819551,-0.46078 0.351786,-1.48503 -0.965889,-2.11498 -1.56046,-0.74601 -2.418753,-2.05869 -2.210152,-3.38022 0.336356,-2.13089 1.331304,-3.09022 3.204941,-3.09022 2.375958,0 3.523807,1.56142 3.196306,4.34793 -0.207925,1.76913 0.278252,2.58741 1.403578,2.36234 0.482227,-0.0964 1.737563,0.15164 3.433672,0.67858 3.949819,1.22712 4.671729,1.07786 7.424372,-1.53504 1.168887,-1.10955 2.124512,-2.22954 2.123612,-2.48887 -7.94e-4,-0.25934 -0.176342,-0.88965 -0.389869,-1.40069 -0.296111,-0.70869 -0.311806,-0.95437 -0.06615,-1.03541 3.416396,-1.12696 5.955787,-0.8231 7.392736,0.88462 1.308026,1.5545 1.587767,5.27066 0.548765,7.28989 -0.600583,1.16719 -2.987821,3.43204 -8.219699,7.79831 -3.845108,3.20893 -4.559091,3.91709 -4.559091,4.5219 0,0.59578 2.453433,6.5688 3.850769,9.3749 0.464389,0.93257 0.499946,2.5804 0.06506,3.01529 -0.415899,0.41589 -1.663025,0.40763 -1.996165,-0.0132 -0.23673,-0.29907 -1.630698,-2.90466 -4.272848,-7.98678 -0.524762,-1.00937 -1.08924,-1.87792 -1.254395,-1.93013 -0.165156,-0.0522 -0.790927,0.79907 -1.390605,1.89171 l -1.090324,1.98662 -0.165936,3.64768 c -0.185092,4.06871 -0.38648,4.57371 -1.823961,4.57371 -1.114489,0 -1.572992,-0.59789 -1.604536,-2.09231 -0.09879,-4.68056 -0.11131,-4.80525 -0.497103,-4.9533 -0.244356,-0.0938 -1.803626,1.00516 -4.167187,2.93691 -3.989567,3.2607 -4.405416,3.60402 -5.560746,4.59094 -0.721693,0.61649 -0.733183,0.6174 -2.090462,0.16659 -1.478211,-0.49098 -4.220933,-0.40777 -5.282308,0.16026 -0.653523,0.34975 -1.741966,0.22021 -3.410923,-0.40595 -0.991505,-0.37199 -1.36762,-0.39498 -2.248958,-0.13748 -0.582083,0.17007 -1.326224,0.48027 -1.653646,0.68934 l -0.595312,0.38012 z m 23.406404,-16.20721 c 1.257785,-1.31261 1.393331,-1.73788 0.899424,-2.82188 -0.53712,-1.17885 -0.986934,-1.04855 -1.663805,0.48197 -0.574059,1.29805 -0.723017,1.71522 -1.117306,3.12904 -0.241166,0.86477 0.658357,0.48753 1.881687,-0.78913 z m 8.290678,-7.00285 c 0.480854,-0.48085 0.387495,-0.72732 -0.387043,-1.02179 -0.842426,-0.32029 -1.186252,-0.0565 -0.975725,0.74854 0.167822,0.64175 0.856234,0.77979 1.362768,0.27325 z"
         style="fill:#000000;stroke-width:0.26458332" />
    </g>
  </g>
</svg>
