<?xml version="1.0" encoding="UTF-8" standalone="no"?>
<svg
   xmlns:dc="http://purl.org/dc/elements/1.1/"
   xmlns:cc="http://creativecommons.org/ns#"
   xmlns:rdf="http://www.w3.org/1999/02/22-rdf-syntax-ns#"
   xmlns:svg="http://www.w3.org/2000/svg"
   xmlns="http://www.w3.org/2000/svg"
   xmlns:sodipodi="http://sodipodi.sourceforge.net/DTD/sodipodi-0.dtd"
   xmlns:inkscape="http://www.inkscape.org/namespaces/inkscape"
   width="286"
   height="286"
   viewBox="0 0 75.670831 75.670831"
   version="1.1"
   id="svg8"
   sodipodi:docname="bar.svg"
   inkscape:version="0.92.4 5da689c313, 2019-01-14">
  <sodipodi:namedview
     pagecolor="#ffffff"
     bordercolor="#666666"
     borderopacity="1"
     objecttolerance="10"
     gridtolerance="10"
     guidetolerance="10"
     inkscape:pageopacity="0"
     inkscape:pageshadow="2"
     inkscape:window-width="1920"
     inkscape:window-height="1176"
     id="namedview6401"
     showgrid="false"
     inkscape:zoom="3.3006993"
     inkscape:cx="102.96246"
     inkscape:cy="126.10472"
     inkscape:window-x="1920"
     inkscape:window-y="0"
     inkscape:window-maximized="1"
     inkscape:current-layer="svg8" />
  <defs
     id="defs2" />
  <metadata
     id="metadata5">
    <rdf:RDF>
      <cc:Work
         rdf:about="">
        <dc:format>image/svg+xml</dc:format>
        <dc:type
           rdf:resource="http://purl.org/dc/dcmitype/StillImage" />
        <dc:title />
      </cc:Work>
    </rdf:RDF>
  </metadata>
  <g
     id="layer32">
    <rect
       ry="5.9669361"
       rx="5.4282708"
       y="3.9774644"
       x="3.4812233"
       height="68.616776"
       width="68.708389"
       id="rect1982"
       style="display:inline;fill:#ffffff;fill-rule:evenodd;stroke-width:0.26458332" />
  </g>
  <rect
     style="fill:none;fill-rule:evenodd;stroke:#000080;stroke-width:5.29068613;stroke-miterlimit:4;stroke-dasharray:none;stroke-opacity:1"
     id="rect815"
     width="70.38015"
     height="70.38015"
     x="2.6453431"
     y="3.0957773"
     rx="5.4282579"
     ry="5.9669409" />
  <path
     inkscape:connector-curvature="0"
     id="path6946"
     d="m 12.3326,65.542912 c -0.567725,-0.144636 -1.169209,-0.610274 -1.485517,-1.150012 -0.245664,-0.419195 -0.296535,-0.632672 -0.29999,-1.258914 -0.0078,-1.405383 -0.7975205,-0.58732 12.662721,-13.116419 6.672705,-6.211107 12.149445,-11.344681 12.170532,-11.407942 0.03064,-0.09191 -5.365014,-6.011946 -5.479422,-6.011946 -0.01736,0 -0.434009,0.21371 -0.925878,0.474912 -1.462163,0.776464 -2.313749,0.9705 -4.209382,0.959117 -1.414479,-0.0085 -1.715064,-0.04331 -2.543179,-0.294598 -2.818071,-0.85512 -4.894944,-2.510973 -6.912061,-5.510857 -3.354004,-4.988118 -4.712445,-10.534442 -3.274956,-13.371188 1.165706,-2.300411 4.280069,-2.860709 8.603942,-1.547917 3.424935,1.039862 7.629647,3.588786 9.563587,5.797508 0.8615,0.983907 1.176803,1.459427 1.730284,2.609511 0.746622,1.55141 0.940698,2.419512 0.950899,4.253367 0.01021,1.836926 -0.19092,2.707674 -0.95999,4.155913 -0.261202,0.491869 -0.474912,0.908597 -0.474912,0.926061 0,0.09864 6.009004,5.622064 6.084897,5.59318 0.05035,-0.01916 1.345271,-1.203243 2.877602,-2.631291 l 2.786057,-2.59645 -0.251428,-0.568523 c -0.906611,-2.050006 -0.463193,-4.808742 1.108793,-6.898392 0.549049,-0.729854 1.061424,-1.188812 5.625982,-5.039442 6.546904,-5.522924 9.892748,-8.201515 9.892748,-7.919862 0,0.249979 -1.718435,2.025233 -7.043156,7.276031 l -5.58019,5.502722 0.41886,0.418861 c 0.377859,0.377857 0.439042,0.404412 0.625018,0.271258 0.113385,-0.08118 2.151594,-1.886432 4.529354,-4.011669 6.775261,-6.055714 8.776092,-7.759363 8.930982,-7.604472 0.135736,0.135736 -1.599322,2.034422 -8.105767,8.870198 -2.222623,2.335124 -4.041133,4.286658 -4.041133,4.336739 0,0.148522 0.720657,0.802004 0.83802,0.759905 0.05939,-0.0213 1.904226,-1.750549 4.099635,-3.842768 6.709499,-6.394133 8.918566,-8.414753 9.05279,-8.280529 0.151672,0.151672 -1.527724,2.124288 -7.506634,8.817284 -2.12511,2.378919 -3.954339,4.439694 -4.064957,4.5795 -0.201076,0.254133 -0.201027,0.254291 0.21042,0.675651 l 0.411544,0.421458 6.15238,-6.196189 c 5.593487,-5.633315 6.633601,-6.627211 6.633601,-6.338836 0,0.427921 -10.709527,13.307245 -12.414567,14.929811 -1.497044,1.424632 -3.152745,2.130624 -5.0163,2.138953 -0.981532,0.0044 -1.690783,-0.150582 -2.478365,-0.54151 l -0.500016,-0.24819 -2.601182,2.793933 c -1.430649,1.536662 -2.601181,2.815641 -2.601181,2.842173 0,0.02653 5.436965,5.108339 12.082144,11.292905 8.446414,7.860946 12.158278,11.382817 12.335146,11.703768 0.342922,0.622279 0.419218,1.542812 0.186056,2.244799 -0.4673,1.406909 -2.252616,2.043137 -3.684049,1.312873 -0.319723,-0.16311 -3.556089,-3.570031 -11.69222,-12.3084 l -11.250127,-12.082861 -0.21826,0.217478 c -0.120043,0.119613 -5.222951,5.594129 -11.339795,12.165593 -8.935293,9.599387 -11.219509,11.996738 -11.619935,12.195465 -0.547222,0.271581 -1.44514,0.380918 -1.989445,0.24225 z"
     style="fill:#000000;stroke-width:0.10693783" />
</svg>
