<?xml version="1.0" encoding="UTF-8" standalone="no"?>
<svg
   xmlns:dc="http://purl.org/dc/elements/1.1/"
   xmlns:cc="http://creativecommons.org/ns#"
   xmlns:rdf="http://www.w3.org/1999/02/22-rdf-syntax-ns#"
   xmlns:svg="http://www.w3.org/2000/svg"
   xmlns="http://www.w3.org/2000/svg"
   xmlns:sodipodi="http://sodipodi.sourceforge.net/DTD/sodipodi-0.dtd"
   xmlns:inkscape="http://www.inkscape.org/namespaces/inkscape"
   id="svg8"
   version="1.1"
   viewBox="0 0 75.670831 75.670831"
   height="286"
   width="286"
   sodipodi:docname="grill z altaną.svg"
   inkscape:version="0.92.4 5da689c313, 2019-01-14">
  <sodipodi:namedview
     pagecolor="#ffffff"
     bordercolor="#666666"
     borderopacity="1"
     objecttolerance="10"
     gridtolerance="10"
     guidetolerance="10"
     inkscape:pageopacity="0"
     inkscape:pageshadow="2"
     inkscape:window-width="1920"
     inkscape:window-height="1020"
     id="namedview3417"
     showgrid="false"
     inkscape:zoom="2.3339469"
     inkscape:cx="43.67828"
     inkscape:cy="177.45164"
     inkscape:window-x="0"
     inkscape:window-y="0"
     inkscape:window-maximized="1"
     inkscape:current-layer="layer9" />
  <defs
     id="defs2" />
  <metadata
     id="metadata5">
    <rdf:RDF>
      <cc:Work
         rdf:about="">
        <dc:format>image/svg+xml</dc:format>
        <dc:type
           rdf:resource="http://purl.org/dc/dcmitype/StillImage" />
        <dc:title />
      </cc:Work>
    </rdf:RDF>
  </metadata>
  <g
     inkscape:groupmode="layer"
     id="layer9"
     inkscape:label="Layer 1">
    <rect
       style="display:inline;fill:#ffffff;fill-rule:evenodd;stroke-width:0.26458332"
       id="rect1982"
       width="68.708389"
       height="68.616776"
       x="4.3170977"
       y="3.0957773"
       rx="5.4282708"
       ry="5.9669361" />
  </g>
  <g
     inkscape:groupmode="layer"
     id="layer10"
     inkscape:label="Layer 2">
    <g
       style=""
       transform="translate(0,-221.32918)"
       id="layer1">
      <rect
         ry="5.9669409"
         rx="5.4282579"
         y="224.42496"
         x="2.6453431"
         height="70.38015"
         width="70.38015"
         id="rect815"
         style="fill:none;fill-rule:evenodd;stroke:#000080;stroke-width:5.29068613;stroke-miterlimit:4;stroke-dasharray:none;stroke-opacity:1" />
      <flowRoot
         transform="matrix(0.26458333,0,0,0.26458333,11.759859,233.35631)"
         style="font-style:normal;font-variant:normal;font-weight:800;font-stretch:normal;font-size:133.33333501px;line-height:1.25;font-family:Cantarell;-inkscape-font-specification:'Cantarell, Ultra-Bold';font-variant-ligatures:normal;font-variant-caps:normal;font-variant-numeric:normal;font-feature-settings:normal;text-align:center;letter-spacing:0px;word-spacing:0px;writing-mode:lr;text-anchor:middle;fill:#000000;fill-opacity:1;stroke:none;"
         id="flowRoot3079"
         xml:space="preserve"><flowRegion
           style="-inkscape-font-specification:'Cantarell, Ultra-Bold';font-family:Cantarell;font-weight:800;font-style:normal;font-stretch:normal;font-variant:normal;font-size:133.33333501px;text-anchor:middle;text-align:center;writing-mode:lr;font-variant-ligatures:normal;font-variant-caps:normal;font-variant-numeric:normal;font-feature-settings:normal;"
           id="flowRegion3081"><rect
             style="-inkscape-font-specification:'Cantarell, Ultra-Bold';font-family:Cantarell;font-weight:800;font-style:normal;font-stretch:normal;font-variant:normal;font-size:133.33333501px;text-anchor:middle;text-align:center;writing-mode:lr;font-variant-ligatures:normal;font-variant-caps:normal;font-variant-numeric:normal;font-feature-settings:normal;"
             y="41.543083"
             x="26.769043"
             height="123.23862"
             width="171.72595"
             id="rect3083" /></flowRegion><flowPara
           id="flowPara3085">WC</flowPara></flowRoot>      <path
         id="path3157"
         d="m 16.020382,286.94398 c -1.41716,-0.38794 -2.664674,-1.24816 -2.664674,-1.83743 0,-0.14552 -0.114474,-0.26458 -0.254386,-0.26458 -0.554683,0 -0.866915,-2.44543 -0.895221,-7.01146 l -0.02952,-4.7625 2.423717,-0.0758 2.423716,-0.0758 0.08408,4.36658 c 0.07259,3.76995 0.148682,4.43103 0.5569,4.83834 0.44441,0.44341 1.628858,0.47352 19.711441,0.50109 11.680945,0.0178 19.52465,-0.0704 19.966729,-0.22449 0.400457,-0.1396 0.817184,-0.39093 0.926057,-0.5585 0.108874,-0.16757 0.257482,-2.26921 0.330243,-4.6703 l 0.132291,-4.36562 h 2.38125 2.38125 l -0.0049,4.6302 c -0.0062,5.8698 -0.108387,6.35645 -1.667016,7.93886 -1.02462,1.04025 -1.489823,1.30664 -2.693717,1.54253 -0.93876,0.18395 -8.579694,0.31271 -21.530043,0.36281 -17.505525,0.0677 -20.267246,0.025 -21.5782,-0.33385 z m 6.654422,-11.03091 0.07361,-3.63722 1.049693,-0.34354 c 1.004392,-0.3287 1.269727,-0.27165 6.148289,1.32213 4.037261,1.31893 5.099279,1.76203 5.10187,2.12867 0.0024,0.33476 -0.208227,0.46302 -0.760233,0.46302 -0.419929,0 -1.104538,0.17786 -1.521354,0.39525 -0.416817,0.21738 -0.959181,0.39598 -1.205254,0.39687 -0.246074,8e-4 -0.512649,0.1072 -0.59239,0.23622 -0.07974,0.12903 -0.592784,0.31828 -1.140095,0.42055 -0.54731,0.10228 -1.114172,0.28373 -1.259693,0.40322 -0.14552,0.11949 -0.994086,0.40596 -1.885701,0.6366 -0.891615,0.23064 -1.963177,0.59773 -2.38125,0.81577 -1.669446,0.87066 -1.709044,0.79189 -1.627494,-3.23754 z m 26.531945,1.72229 c -1.74625,-0.5746 -3.532187,-1.20115 -3.96875,-1.39232 -0.436562,-0.19117 -2.043906,-0.73012 -3.571875,-1.19765 -1.527968,-0.46754 -3.01625,-0.93862 -3.307291,-1.04685 -0.291042,-0.10823 -1.184011,-0.40175 -1.984375,-0.65227 -0.800365,-0.25051 -1.693334,-0.55153 -1.984375,-0.66893 -0.608299,-0.24536 -3.817797,-1.20953 -5.953125,-1.78838 -0.800365,-0.21697 -1.516321,-0.49124 -1.591014,-0.60949 -0.07469,-0.11826 -0.729536,-0.35584 -1.455208,-0.52796 -0.725672,-0.17212 -1.646825,-0.44812 -2.047007,-0.61333 l -0.727605,-0.30039 v -3.63958 c 0,-3.17471 0.05461,-3.63958 0.42751,-3.63958 0.40173,0 2.498512,0.62006 3.673532,1.08633 0.291042,0.11549 1.719792,0.58558 3.175,1.04464 1.455208,0.45906 3.89599,1.27564 5.423958,1.81462 1.527969,0.53898 6.19745,2.10414 10.37662,3.47813 4.179173,1.37399 7.645543,2.61722 7.703042,2.76274 0.0575,0.14552 0.04515,1.78263 -0.02745,3.63802 -0.113305,2.89588 -0.192482,3.36803 -0.559292,3.33521 -0.235014,-0.021 -1.85605,-0.50835 -3.6023,-1.08296 z m 0.372261,-9.29424 c -0.377341,-0.19691 -1.151247,-0.44416 -1.719792,-0.54946 -0.568547,-0.10529 -1.390906,-0.34598 -1.827469,-0.53485 -1.029261,-0.44531 -3.764745,-1.36213 -4.696354,-1.57402 -1.612797,-0.36682 -0.702305,-0.88683 4.894792,-2.79553 3.092318,-1.05453 6.006896,-1.97621 6.476844,-2.04817 l 0.854448,-0.13083 -0.105984,2.34342 c -0.05829,1.28888 -0.115369,2.94457 -0.126844,3.67932 -0.01976,1.26577 -0.06699,1.35259 -0.899541,1.65365 -1.141654,0.41282 -2.000692,0.3997 -2.8501,-0.0435 z m -15.718094,-5.18034 c -0.582083,-0.26493 -1.742943,-0.6936 -2.579687,-0.95261 -0.877155,-0.2715 -1.521355,-0.62353 -1.521355,-0.83135 0,-0.19825 -0.274694,-0.46489 -0.610432,-0.59254 -0.556535,-0.21159 -2.035401,-2.57716 -2.035401,-3.25579 0,-0.15243 -0.161717,-0.40933 -0.35937,-0.5709 -0.526741,-0.43056 -1.22813,-3.27689 -1.22813,-4.98392 0,-1.33762 0.858026,-4.34245 1.342806,-4.70254 0.09796,-0.0728 0.414429,-0.52315 0.703274,-1.00086 0.288844,-0.47772 1.177053,-1.54928 1.973797,-2.38125 1.648101,-1.72097 3.443274,-4.25929 4.084511,-5.77537 0.49014,-1.15883 0.916875,-4.39678 0.606705,-4.6035 -0.111359,-0.0742 -0.28435,-0.46117 -0.384424,-0.8599 -0.155946,-0.62134 -0.100891,-0.72495 0.385207,-0.72495 1.246144,0 4.706246,2.87305 6.271259,5.20726 1.421013,2.11944 1.950198,3.92716 1.950198,6.662 0,2.29882 -0.599852,5.06407 -1.098526,5.06407 -0.123415,0 -0.22439,0.29766 -0.22439,0.66146 0,0.3638 -0.119063,0.66146 -0.264584,0.66146 -0.14552,0 -0.264583,0.30139 -0.264583,0.66976 0,0.36837 -0.178594,0.7383 -0.396875,0.82206 -0.218281,0.0838 -0.396875,0.31815 -0.396875,0.52086 0,0.20271 -0.119062,0.36857 -0.264583,0.36857 -0.145521,0 -0.264584,0.11773 -0.264584,0.26163 0,0.14389 -0.535781,0.96613 -1.190625,1.8272 -0.654843,0.86106 -1.190625,1.74833 -1.190625,1.97171 0,0.22338 -0.105565,0.47139 -0.234589,0.55113 -0.381732,0.23592 -0.64014,1.9848 -0.638017,4.31802 0.0019,2.04843 -0.0323,2.1818 -0.554891,2.1664 -0.306283,-0.009 -1.033128,-0.23318 -1.615211,-0.49811 z m 4.684109,-1.24767 c -0.343436,-1.95478 0.263171,-4.03435 1.801326,-6.17531 2.49288,-3.46984 3.48085,-5.4866 4.244877,-8.6651 0.204041,-0.84886 0.397497,-1.12448 0.78926,-1.12448 0.285433,0 0.51897,0.17057 0.51897,0.37904 0,0.20848 0.232404,0.45281 0.516456,0.54296 0.284051,0.0902 0.849598,0.84232 1.256771,1.67148 0.640275,1.30384 0.73829,1.81146 0.725326,3.75652 -0.01886,2.83162 -1.007605,5.80584 -2.638703,7.9375 -0.918636,1.20055 -1.339488,1.51989 -2.404901,1.82482 -0.710274,0.20329 -1.593178,0.52051 -1.96201,0.70492 -0.368829,0.18442 -1.099296,0.41573 -1.623256,0.51403 l -0.952656,0.17872 z"
         style="fill:#000000;stroke-width:0.26458332" />
    </g>
  </g>
</svg>
