<?xml version="1.0" encoding="UTF-8" standalone="no"?>
<svg
   xmlns:dc="http://purl.org/dc/elements/1.1/"
   xmlns:cc="http://creativecommons.org/ns#"
   xmlns:rdf="http://www.w3.org/1999/02/22-rdf-syntax-ns#"
   xmlns:svg="http://www.w3.org/2000/svg"
   xmlns="http://www.w3.org/2000/svg"
   xmlns:sodipodi="http://sodipodi.sourceforge.net/DTD/sodipodi-0.dtd"
   xmlns:inkscape="http://www.inkscape.org/namespaces/inkscape"
   id="svg8"
   version="1.1"
   viewBox="0 0 75.670831 75.670831"
   height="286"
   width="286"
   sodipodi:docname="plaża.svg"
   inkscape:version="0.92.4 5da689c313, 2019-01-14">
  <sodipodi:namedview
     pagecolor="#ffffff"
     bordercolor="#666666"
     borderopacity="1"
     objecttolerance="10"
     gridtolerance="10"
     guidetolerance="10"
     inkscape:pageopacity="0"
     inkscape:pageshadow="2"
     inkscape:window-width="1920"
     inkscape:window-height="1020"
     id="namedview11271"
     showgrid="false"
     inkscape:zoom="0.82517483"
     inkscape:cx="-75.741525"
     inkscape:cy="143"
     inkscape:window-x="0"
     inkscape:window-y="0"
     inkscape:window-maximized="1"
     inkscape:current-layer="layer24" />
  <defs
     id="defs2" />
  <metadata
     id="metadata5">
    <rdf:RDF>
      <cc:Work
         rdf:about="">
        <dc:format>image/svg+xml</dc:format>
        <dc:type
           rdf:resource="http://purl.org/dc/dcmitype/StillImage" />
        <dc:title />
      </cc:Work>
    </rdf:RDF>
  </metadata>
  <g
     inkscape:groupmode="layer"
     id="layer24"
     inkscape:label="Layer 1">
    <rect
       style="display:inline;fill:#ffffff;fill-rule:evenodd;stroke-width:0.26458332"
       id="rect1982"
       width="68.708389"
       height="68.616776"
       x="3.2587662"
       y="3.8008242"
       rx="5.4282708"
       ry="5.9669361" />
  </g>
  <g
     inkscape:groupmode="layer"
     id="layer25"
     inkscape:label="Layer 2">
    <g
       transform="translate(0,-221.32918)"
       id="layer1"
       style="">
      <rect
         ry="5.9669409"
         rx="5.4282579"
         y="224.42496"
         x="2.6453431"
         height="70.38015"
         width="70.38015"
         id="rect815"
         style="fill:none;fill-rule:evenodd;stroke:#000080;stroke-width:5.29068613;stroke-miterlimit:4;stroke-dasharray:none;stroke-opacity:1" />
      <path
         id="path2156"
         d="m 18.816795,283.20753 c -0.156687,-0.1888 -0.320094,-1.29013 -0.363126,-2.4474 l -0.07824,-2.10413 -1.124479,-0.0814 -1.12448,-0.0814 v -1.54397 c 0,-1.11798 0.107873,-1.58538 0.390963,-1.69401 0.215029,-0.0825 5.535411,-0.15704 11.82307,-0.16561 6.287659,-0.009 11.497093,-0.0806 11.576519,-0.16 0.159046,-0.15905 -1.8583,-6.16603 -5.279491,-15.72056 -0.482668,-1.34797 -0.746306,-1.5875 -1.747285,-1.5875 -1.224149,0 -3.534608,-1.22878 -3.534608,-1.87982 0,-0.27579 -0.08798,-0.50143 -0.195513,-0.50143 -0.35422,0 -7.339364,2.71337 -7.603071,2.9534 -0.166583,0.15163 -0.149935,0.40778 0.047,0.72312 0.355257,0.56885 -0.132178,2.27704 -0.995878,3.48999 -0.722223,1.01427 -2.535996,1.82932 -4.070887,1.82932 -1.151693,0 -1.385315,-0.11112 -2.430006,-1.15581 -0.635696,-0.6357 -1.155812,-1.32898 -1.155812,-1.54063 0,-0.36547 1.486435,-1.03936 6.156908,-2.79132 l 1.791283,-0.67193 -0.170965,-3.07172 c -0.338972,-6.09031 1.219158,-11.14206 4.425554,-14.34845 0.273471,-0.27347 0.497221,-0.61015 0.497221,-0.74817 0,-0.35542 1.298342,-1.71391 1.472026,-1.54022 0.186758,0.18676 0.175451,0.84854 -0.03965,2.32033 -0.0957,0.65485 -0.159049,1.54782 -0.140771,1.98438 0.07439,1.77681 0.222062,3.51149 0.405425,4.7625 0.215979,1.47354 1.72504,6.7494 2.033816,7.11047 0.111107,0.12993 0.583491,0.0882 1.077749,-0.0952 0.483968,-0.17957 2.189629,-0.78296 3.790359,-1.34087 1.600729,-0.55791 2.908739,-1.1104 2.906689,-1.22774 -0.02082,-1.19166 -2.456622,-6.68919 -3.982321,-8.98799 -0.923026,-1.39073 -3.707754,-4.04712 -4.249784,-4.05392 -0.164083,-0.002 -0.440777,-0.17537 -0.614875,-0.38515 -0.488766,-0.58893 1.670759,-1.12306 2.76529,-0.68396 0.436563,0.17513 1.150938,0.36812 1.5875,0.42885 1.772701,0.24659 3.593996,0.95611 5.191728,2.02253 2.130725,1.42218 5.406148,4.66088 6.729633,6.65419 1.214581,1.82929 1.220992,1.82933 5.234927,0.0272 1.455677,-0.65355 2.794768,-1.18826 2.975756,-1.18826 0.180988,0 0.375782,-0.14015 0.432877,-0.31143 0.06117,-0.18352 0.245655,-0.22376 0.449162,-0.098 0.464243,0.28692 0.208592,2.14406 -0.385519,2.80054 -0.285631,0.31562 -0.393814,0.72444 -0.295432,1.11644 0.128212,0.51083 -0.0367,0.74291 -0.947642,1.33357 -1.512864,0.98096 -3.403002,1.0432 -4.919864,0.162 -0.484113,-0.28123 -1.008885,-0.43181 -1.166156,-0.33461 -0.185597,0.1147 -0.233614,-0.0234 -0.136819,-0.39355 0.186204,-0.71205 -0.20574,-0.97649 -0.950899,-0.64158 -0.313547,0.14092 -0.986803,0.40668 -1.496126,0.59058 -0.509323,0.18389 -1.924542,0.70771 -3.144933,1.16404 l -2.218892,0.8297 -0.106614,1.4552 c -0.08132,1.11002 -0.318186,1.76292 -0.99852,2.75237 l -0.891907,1.29716 1.44667,4.1268 c 1.583348,4.51669 2.476872,7.04231 3.846932,10.87367 l 0.898819,2.51355 5.54391,-0.034 5.54391,-0.034 0.592233,-0.75976 c 0.721212,-0.92524 3.691575,-4.9757 5.495684,-7.49404 0.727604,-1.01566 1.414767,-1.85072 1.527027,-1.85568 0.388557,-0.0172 2.309395,1.38544 2.300436,1.67979 -0.0049,0.16257 -0.600051,0.95042 -1.322449,1.75078 -0.722397,0.80037 -1.313661,1.536 -1.313921,1.63475 -2.56e-4,0.0987 -0.151008,0.33687 -0.335002,0.52916 -0.183994,0.1923 -0.746466,0.88541 -1.249934,1.54026 -0.50347,0.65484 -0.985972,1.25015 -1.072224,1.32291 -0.733562,0.61882 -2.409899,3.28854 -2.496992,3.9767 -0.129902,1.02643 -0.319069,1.24128 -1.196316,1.35871 -0.634407,0.0849 -0.666869,0.18053 -0.79375,2.33751 l -0.132292,2.24896 -0.898297,0.0858 c -0.54024,0.0516 -0.986835,-0.0539 -1.120426,-0.26458 -0.122174,-0.1927 -0.223957,-1.27309 -0.226184,-2.40088 l -0.0041,-2.05052 h -3.527777 c -1.94028,0 -3.602432,0.0747 -3.693676,0.1659 -0.09125,0.0912 0.008,0.58203 0.220485,1.09064 0.212511,0.50862 0.386384,1.01483 0.386384,1.12492 0,0.28339 -1.507784,0.87404 -1.78843,0.70059 -0.128079,-0.0792 -0.458044,-0.80638 -0.733258,-1.61604 l -0.500388,-1.47212 -10.196775,0.0692 -10.196775,0.0692 -0.07403,2.11667 c -0.05602,1.60192 -0.180924,2.19709 -0.513591,2.4474 -0.567619,0.42707 -1.256432,0.42173 -1.616849,-0.0125 z m 5.18103,-22.6023 c 0.472943,-0.0587 1.246849,-0.0587 1.719792,0 0.472942,0.0587 0.08599,0.10671 -0.859896,0.10671 -0.945886,0 -1.332839,-0.048 -0.859896,-0.10671 z m -11.270073,-0.73464 c -0.02645,-0.43657 -0.114188,-1.09141 -0.194974,-1.45521 -0.126326,-0.56889 -0.105108,-0.59602 0.151605,-0.19388 0.164168,0.25717 0.251905,0.91201 0.194973,1.45521 -0.08937,0.85266 -0.110086,0.87915 -0.151604,0.19388 z m 0.1039,-4.18776 c 0.0641,-1.1391 0.241524,-2.2702 0.394274,-2.51354 0.209301,-0.33344 0.232186,-0.2143 0.09289,0.48359 -0.101663,0.50932 -0.279086,1.64041 -0.394274,2.51354 -0.193627,1.46769 -0.200637,1.43119 -0.09289,-0.48359 z m 27.838009,-1.42333 c 0.329117,-0.0633 0.805368,-0.0609 1.058333,0.005 0.252965,0.0662 -0.01633,0.118 -0.598398,0.11506 -0.582083,-0.003 -0.789053,-0.0571 -0.459935,-0.1204 z m -26.903552,-2.61305 c 7.763506,-12.46898 11.800901,-11.94942 11.885363,-11.73835 0.07643,0.191 -4.041299,1.70782 -7.737358,6.60659 -4.148005,5.13176 -5.197851,13.63477 -5.186362,13.3559 z m 18.764529,-14.50172 c 0,-0.251 0.791998,-0.37749 0.933183,-0.14905 0.08601,0.13917 -0.08877,0.25303 -0.388402,0.25303 -0.299629,0 -0.544781,-0.0468 -0.544781,-0.10398 z m 3.638021,-0.33583 c 0.181901,-0.0734 0.479557,-0.0734 0.661458,0 0.181901,0.0734 0.03307,0.13345 -0.330729,0.13345 -0.363802,0 -0.51263,-0.06 -0.330729,-0.13345 z m -9.508464,-1.06385 c 0.190996,-0.0764 0.419199,-0.067 0.507118,0.0209 0.08792,0.0879 -0.06835,0.15045 -0.347266,0.13897 -0.308224,-0.0127 -0.370919,-0.0754 -0.159852,-0.15986 z"
         style="fill:#000000;stroke-width:0.26458335" />
    </g>
  </g>
</svg>
