<?xml version="1.0" encoding="UTF-8" standalone="no"?>
<svg
   xmlns:dc="http://purl.org/dc/elements/1.1/"
   xmlns:cc="http://creativecommons.org/ns#"
   xmlns:rdf="http://www.w3.org/1999/02/22-rdf-syntax-ns#"
   xmlns:svg="http://www.w3.org/2000/svg"
   xmlns="http://www.w3.org/2000/svg"
   xmlns:sodipodi="http://sodipodi.sourceforge.net/DTD/sodipodi-0.dtd"
   xmlns:inkscape="http://www.inkscape.org/namespaces/inkscape"
   id="svg8"
   version="1.1"
   viewBox="0 0 75.670831 75.670831"
   height="286"
   width="286"
   sodipodi:docname="pole namiotowe.svg"
   inkscape:version="0.92.4 5da689c313, 2019-01-14">
  <sodipodi:namedview
     pagecolor="#ffffff"
     bordercolor="#666666"
     borderopacity="1"
     objecttolerance="10"
     gridtolerance="10"
     guidetolerance="10"
     inkscape:pageopacity="0"
     inkscape:pageshadow="2"
     inkscape:window-width="1920"
     inkscape:window-height="1020"
     id="namedview11892"
     showgrid="false"
     inkscape:zoom="0.82517483"
     inkscape:cx="-75.741525"
     inkscape:cy="143"
     inkscape:window-x="0"
     inkscape:window-y="0"
     inkscape:window-maximized="1"
     inkscape:current-layer="layer26" />
  <defs
     id="defs2" />
  <metadata
     id="metadata5">
    <rdf:RDF>
      <cc:Work
         rdf:about="">
        <dc:format>image/svg+xml</dc:format>
        <dc:type
           rdf:resource="http://purl.org/dc/dcmitype/StillImage" />
        <dc:title />
      </cc:Work>
    </rdf:RDF>
  </metadata>
  <g
     inkscape:groupmode="layer"
     id="layer26"
     inkscape:label="Layer 1">
    <rect
       style="display:inline;fill:#ffffff;fill-rule:evenodd;stroke-width:0.26458332"
       id="rect1982"
       width="68.708389"
       height="68.616776"
       x="3.1745098"
       y="4.1541104"
       rx="5.4282708"
       ry="5.9669361" />
  </g>
  <g
     inkscape:groupmode="layer"
     id="layer27"
     inkscape:label="Layer 2">
    <g
       style=""
       transform="translate(0,-221.32918)"
       id="layer1">
      <rect
         ry="5.9669409"
         rx="5.4282579"
         y="224.42496"
         x="2.6453431"
         height="70.38015"
         width="70.38015"
         id="rect815"
         style="fill:none;fill-rule:evenodd;stroke:#000080;stroke-width:5.29068613;stroke-miterlimit:4;stroke-dasharray:none;stroke-opacity:1" />
      <flowRoot
         transform="matrix(0.26458333,0,0,0.26458333,11.759859,233.35631)"
         style="font-style:normal;font-variant:normal;font-weight:800;font-stretch:normal;font-size:133.33333501px;line-height:1.25;font-family:Cantarell;-inkscape-font-specification:'Cantarell, Ultra-Bold';font-variant-ligatures:normal;font-variant-caps:normal;font-variant-numeric:normal;font-feature-settings:normal;text-align:center;letter-spacing:0px;word-spacing:0px;writing-mode:lr;text-anchor:middle;fill:#000000;fill-opacity:1;stroke:none;"
         id="flowRoot3079"
         xml:space="preserve"><flowRegion
           style="-inkscape-font-specification:'Cantarell, Ultra-Bold';font-family:Cantarell;font-weight:800;font-style:normal;font-stretch:normal;font-variant:normal;font-size:133.33333501px;text-anchor:middle;text-align:center;writing-mode:lr;font-variant-ligatures:normal;font-variant-caps:normal;font-variant-numeric:normal;font-feature-settings:normal;"
           id="flowRegion3081"><rect
             style="-inkscape-font-specification:'Cantarell, Ultra-Bold';font-family:Cantarell;font-weight:800;font-style:normal;font-stretch:normal;font-variant:normal;font-size:133.33333501px;text-anchor:middle;text-align:center;writing-mode:lr;font-variant-ligatures:normal;font-variant-caps:normal;font-variant-numeric:normal;font-feature-settings:normal;"
             y="41.543083"
             x="26.769043"
             height="123.23862"
             width="171.72595"
             id="rect3083" /></flowRegion><flowPara
           id="flowPara3085">WC</flowPara></flowRoot>      <path
         id="path3189"
         d="m 9.5226612,283.6549 c -0.08267,-0.21544 -0.113429,-0.9719 -0.06834,-1.68102 l 0.08197,-1.28929 2.6049808,-0.1323 2.604981,-0.13229 2.63631,-5.02708 c 3.015481,-5.75011 6.875085,-13.20509 10.410523,-20.10833 1.341491,-2.61938 3.432532,-6.6675 4.646758,-8.99584 1.214226,-2.32833 2.99211,-5.76396 3.950854,-7.63473 0.958741,-1.87076 1.834256,-3.39228 1.945587,-3.38115 0.111329,0.0111 1.727608,3.03003 3.591727,6.70868 1.864122,3.67865 4.672954,9.18876 6.241852,12.2447 1.568899,3.05594 4.371123,8.53281 6.227167,12.17084 5.649166,11.0729 6.888581,13.47288 7.032995,13.61854 0.07623,0.0769 1.171007,0.19932 2.432847,0.27208 l 2.294252,0.13229 0.06878,1.32292 c 0.03783,0.7276 -0.0217,1.45854 -0.132292,1.62429 -0.146973,0.2203 -7.76378,0.35223 -28.310851,0.49039 -24.69594,0.16606 -28.1280368,0.14144 -28.2600968,-0.2027 z m 40.7891678,-3.48149 c 0.07997,-0.20838 -1.539306,-3.69096 -3.598381,-7.73906 -7.216793,-14.18806 -8.035483,-15.69456 -8.529063,-15.69456 -0.321501,0 -0.873903,0.79667 -1.788742,2.57969 -0.727979,1.41883 -2.693502,5.19906 -4.367831,8.40052 -4.505243,8.61441 -6.274435,12.26501 -6.089228,12.56468 0.107585,0.17408 4.370478,0.26761 12.196623,0.26761 10.196446,0 12.053403,-0.0578 12.176622,-0.37888 z"
         style="fill:#000000;stroke-width:0.26458335" />
    </g>
  </g>
</svg>
