<?xml version="1.0" encoding="UTF-8" standalone="no"?>
<!-- Created with Inkscape (http://www.inkscape.org/) -->

<svg
   xmlns:dc="http://purl.org/dc/elements/1.1/"
   xmlns:cc="http://creativecommons.org/ns#"
   xmlns:rdf="http://www.w3.org/1999/02/22-rdf-syntax-ns#"
   xmlns:svg="http://www.w3.org/2000/svg"
   xmlns="http://www.w3.org/2000/svg"
   xmlns:sodipodi="http://sodipodi.sourceforge.net/DTD/sodipodi-0.dtd"
   xmlns:inkscape="http://www.inkscape.org/namespaces/inkscape"
   width="286"
   height="286"
   viewBox="0 0 75.670831 75.670831"
   version="1.1"
   id="svg8"
   inkscape:version="0.92.4 5da689c313, 2019-01-14"
   sodipodi:docname="informacja.svg">
  <defs
     id="defs2" />
  <sodipodi:namedview
     id="base"
     pagecolor="#ffffff"
     bordercolor="#666666"
     borderopacity="1.0"
     inkscape:pageopacity="0.0"
     inkscape:pageshadow="2"
     inkscape:zoom="1.979899"
     inkscape:cx="-31.834899"
     inkscape:cy="106.87274"
     inkscape:document-units="mm"
     inkscape:current-layer="layer1"
     showgrid="false"
     inkscape:window-width="1920"
     inkscape:window-height="1020"
     inkscape:window-x="0"
     inkscape:window-y="0"
     inkscape:window-maximized="1"
     units="px" />
  <metadata
     id="metadata5">
    <rdf:RDF>
      <cc:Work
         rdf:about="">
        <dc:format>image/svg+xml</dc:format>
        <dc:type
           rdf:resource="http://purl.org/dc/dcmitype/StillImage" />
        <dc:title />
      </cc:Work>
    </rdf:RDF>
  </metadata>
  <g
     inkscape:label="Layer 1"
     inkscape:groupmode="layer"
     id="layer1"
     transform="translate(0,-221.32918)">
    <rect
       style="display:inline;fill:#ffffff;fill-rule:evenodd;stroke-width:0.26458332"
       id="rect1982"
       width="68.708397"
       height="68.616776"
       x="3.1745098"
       y="223.97452"
       rx="5.4282713"
       ry="5.9669361" />
  </g>
  <g
     inkscape:groupmode="layer"
     id="layer11"
     inkscape:label="Layer 2">
    <rect
       transform="translate(0,-221.32918)"
       style="fill:none;fill-rule:evenodd;stroke:#000080;stroke-width:5.29068613;stroke-miterlimit:4;stroke-dasharray:none;stroke-opacity:1"
       id="rect815"
       width="70.38015"
       height="70.38015"
       x="2.6453431"
       y="223.97452"
       rx="5.4282579"
       ry="5.9669409" />
    <path
       transform="translate(0,-221.32918)"
       style="fill:#000080;stroke-width:0.34194782"
       d="m 33.785327,285.34714 c -2.093202,-0.24786 -5.500194,-1.25011 -6.064988,-1.78417 -0.176545,-0.16694 -0.513258,-0.30354 -0.748252,-0.30354 -0.890283,0 -5.460323,-3.16148 -7.599574,-5.25728 -5.079517,-4.97633 -7.593656,-10.45054 -7.95594,-17.32302 -0.183637,-3.48361 0.29953,-8.52062 0.904599,-9.43044 0.126581,-0.19034 0.505105,-1.12471 0.841166,-2.07637 0.336061,-0.95167 1.354645,-2.8602 2.263521,-4.24117 1.706835,-2.59342 5.198861,-6.30101 5.942292,-6.30912 0.232294,-0.003 0.422353,-0.13037 0.422353,-0.28406 0,-0.34641 2.932166,-2.48905 3.406231,-2.48905 0.190044,0 0.907822,-0.30211 1.595064,-0.67135 2.205468,-1.18498 6.181506,-2.10077 10.710232,-2.46687 0.861042,-0.0696 5.621285,0.69352 7.527049,1.20669 2.551948,0.68715 6.224529,2.43601 7.030046,3.34765 0.320868,0.36315 0.755875,0.66025 0.966685,0.66025 0.692399,0 5.076287,4.37086 6.469644,6.4504 5.141107,7.67296 6.17296,16.21709 2.98909,24.75088 -2.99758,8.03449 -10.898383,14.57305 -19.553981,16.18252 -2.171866,0.40384 -5.924088,0.41944 -9.145237,0.0381 z m 16.190712,-6.79657 c 0.836157,-0.32862 0.634339,-0.79054 -0.61118,-1.39887 -1.615941,-0.78924 -2.642382,-2.8194 -2.752337,-5.44374 -0.04881,-1.16489 -0.104,-6.36157 -0.12267,-11.54818 l -0.03393,-9.43019 -0.929177,-0.002 c -0.511046,-6e-4 -1.993504,0.30046 -3.294352,0.66904 -2.646653,0.74987 -10.704057,1.76701 -13.937643,1.75944 -2.555717,-0.006 -2.746946,0.48828 -0.740042,1.91273 0.75445,0.5355 1.497027,1.21852 1.650175,1.51784 0.573058,1.12 0.796736,3.81926 0.761922,9.19454 -0.05023,7.7542 -0.240787,8.69406 -2.190757,10.80459 -0.770339,0.83377 -0.908745,1.15811 -0.550751,1.29062 1.683831,0.62327 21.393873,1.20658 22.750753,0.67329 z M 39.867205,249.8263 c 3.233871,-0.77855 5.178488,-2.33889 6.145894,-4.93138 0.973964,-2.61006 -0.281475,-5.77241 -2.985748,-7.52088 -1.517933,-0.98143 -3.892139,-1.60558 -5.863201,-1.54136 -1.467574,0.0478 -5.237178,1.32153 -5.237178,1.7696 0,0.15201 -0.26608,0.3654 -0.591293,0.47423 -0.325211,0.10881 -0.954872,0.77358 -1.399242,1.47726 -1.714682,2.71526 -0.730315,6.80701 2.081946,8.6541 1.489452,0.97825 5.450301,2.2276 6.328354,1.9961 0.278753,-0.0735 0.962965,-0.24346 1.520468,-0.37767 z"
       id="path1418"
       inkscape:connector-curvature="0" />
  </g>
</svg>
