<?xml version="1.0" encoding="UTF-8" standalone="no"?>
<svg
   xmlns:dc="http://purl.org/dc/elements/1.1/"
   xmlns:cc="http://creativecommons.org/ns#"
   xmlns:rdf="http://www.w3.org/1999/02/22-rdf-syntax-ns#"
   xmlns:svg="http://www.w3.org/2000/svg"
   xmlns="http://www.w3.org/2000/svg"
   xmlns:sodipodi="http://sodipodi.sourceforge.net/DTD/sodipodi-0.dtd"
   xmlns:inkscape="http://www.inkscape.org/namespaces/inkscape"
   id="svg8"
   version="1.1"
   viewBox="0 0 75.670831 75.670831"
   height="286"
   width="286"
   sodipodi:docname="jezioro.svg"
   inkscape:version="0.92.4 5da689c313, 2019-01-14">
  <sodipodi:namedview
     pagecolor="#ffffff"
     bordercolor="#666666"
     borderopacity="1"
     objecttolerance="10"
     gridtolerance="10"
     guidetolerance="10"
     inkscape:pageopacity="0"
     inkscape:pageshadow="2"
     inkscape:window-width="1920"
     inkscape:window-height="1020"
     id="namedview2347"
     showgrid="false"
     inkscape:zoom="2.3339469"
     inkscape:cx="87.765835"
     inkscape:cy="140.49094"
     inkscape:window-x="0"
     inkscape:window-y="0"
     inkscape:window-maximized="1"
     inkscape:current-layer="layer12" />
  <defs
     id="defs2" />
  <metadata
     id="metadata5">
    <rdf:RDF>
      <cc:Work
         rdf:about="">
        <dc:format>image/svg+xml</dc:format>
        <dc:type
           rdf:resource="http://purl.org/dc/dcmitype/StillImage" />
        <dc:title />
      </cc:Work>
    </rdf:RDF>
  </metadata>
  <g
     inkscape:groupmode="layer"
     id="layer12"
     inkscape:label="Layer 1">
    <rect
       style="display:inline;fill:#ffffff;fill-rule:evenodd;stroke-width:0.26458332"
       id="rect1982"
       width="68.708389"
       height="68.616776"
       x="3.2587633"
       y="3.624944"
       rx="5.4282708"
       ry="5.9669361" />
  </g>
  <g
     inkscape:groupmode="layer"
     id="layer13"
     inkscape:label="Layer 2">
    <g
       transform="translate(0,-221.32918)"
       id="layer1"
       style="">
      <rect
         ry="5.9669409"
         rx="5.4282579"
         y="224.42496"
         x="2.6453431"
         height="70.38015"
         width="70.38015"
         id="rect815"
         style="fill:none;fill-rule:evenodd;stroke:#000080;stroke-width:5.29068613;stroke-miterlimit:4;stroke-dasharray:none;stroke-opacity:1" />
      <path
         style="fill:#000000;fill-opacity:1;stroke-width:0.26458335"
         d="m 20.110274,273.70426 c -0.927718,-0.49264 -1.571969,-0.61741 -3.175,-0.61491 -2.03195,0.003 -4.6344,0.52994 -5.146088,1.04163 -0.152983,0.15298 -0.605917,0.27815 -1.006519,0.27815 -0.708392,0 -0.72527,-0.0345 -0.615425,-1.25677 0.09148,-1.0179 0.184436,-3.3605 0.388875,-9.7996 0.0013,-0.0419 0.270308,-0.0531 0.59773,-0.025 1.32393,0.11379 1.521304,-0.002 1.52283,-0.89103 0.0027,-1.57987 1.280398,-5.10733 2.013108,-5.55782 0.178923,-0.11001 0.403609,-0.5565 0.499304,-0.99219 0.09569,-0.4357 0.262489,-0.79218 0.370653,-0.79218 0.108164,0 0.485657,-0.5459 0.838873,-1.21313 0.711276,-1.34359 0.877777,-1.63095 1.823186,-3.14658 1.405975,-2.25399 2.596334,-2.91408 5.201985,-2.88466 1.863107,0.021 4.332665,0.84589 4.332665,1.44714 0,0.13254 0.137832,0.24098 0.306294,0.24098 0.168461,0 1.254258,0.60185 2.412882,1.33744 2.259192,1.43433 3.267411,1.60693 3.756985,0.6432 0.603406,-1.18781 1.585102,-2.65465 1.90985,-2.85368 0.189882,-0.11637 0.345239,-0.4306 0.345239,-0.69829 0,-0.7826 0.849617,-1.56333 1.903561,-1.74922 0.824931,-0.1455 1.083064,-0.0669 1.653646,0.50371 0.371869,0.37187 0.676127,0.97604 0.676127,1.34261 0,0.67953 -1.564767,4.14079 -2.212846,4.89482 -0.19659,0.22873 -0.667768,1.07072 -1.047064,1.87108 -0.928257,1.95874 -1.763634,2.68248 -3.393677,2.94015 -1.168692,0.18475 -1.459329,0.13075 -2.361393,-0.43869 -0.565769,-0.35716 -1.098513,-0.64938 -1.183874,-0.64938 -0.08536,0 -0.545451,-0.29765 -1.02242,-0.66145 -1.091096,-0.83222 -1.425826,-0.83206 -1.634856,7.6e-4 -0.09142,0.36423 -0.510403,0.95186 -0.931082,1.30584 -0.42068,0.35399 -0.764872,0.76043 -0.764872,0.90322 0,0.14279 -0.0893,0.29931 -0.198437,0.34781 -0.214116,0.0952 -1.391009,2.34663 -1.389798,2.65876 3.97e-4,0.10413 0.364706,0.56166 0.809559,1.01673 l 0.808824,0.82742 8.914614,-0.0812 c 13.62548,-0.12413 14.810893,-0.2891 17.209362,-2.39498 0.915638,-0.80395 1.89171,-2.50166 1.89171,-3.29032 0,-0.47686 1.124651,-0.47794 2.208972,-0.002 0.458554,0.20122 1.250455,0.52048 1.759778,0.70947 0.983773,0.36503 3.220246,1.75501 4.101041,2.54881 2.054104,1.85124 2.847295,5.01942 2.135794,8.53083 -0.243099,1.19974 -0.547413,2.37872 -0.676254,2.61996 -0.128842,0.24124 -0.390181,0.82557 -0.580758,1.29852 -0.206354,0.5121 -0.534403,0.85989 -0.811077,0.85989 -0.255519,-10e-6 -0.46458,-0.097 -0.46458,-0.21559 0,-0.49499 -1.941491,-1.10734 -3.510907,-1.10734 -1.257181,0 -1.982038,0.16952 -3.099879,0.72493 -0.802452,0.39871 -1.53561,0.83169 -1.629241,0.96217 -1.578268,0.75497 -3.512374,0.17589 -4.606504,-0.332 -0.97073,-0.45426 -1.982695,-0.82593 -2.24881,-0.82593 -0.266116,0 -0.55743,-0.11906 -0.647367,-0.26458 -0.432115,-0.69918 -5.094184,0.30997 -6.900873,1.49376 -0.91344,0.59851 -3.6556,0.35821 -4.292513,-0.37616 -0.246828,-0.28459 -0.834254,-0.60211 -1.305391,-0.70559 -0.471137,-0.10348 -0.924536,-0.29804 -1.007554,-0.43237 -0.184626,-0.29873 -3.61917,-0.32731 -3.969398,-0.033 -0.138245,0.11616 -0.870593,0.42367 -1.62744,0.68336 -0.756846,0.25969 -1.823818,0.70043 -2.371048,0.97942 -1.792776,0.79313 -2.865486,0.16729 -4.560502,-0.72693 z m 7.34359,-26.94839 c -0.384705,-0.20899 -1.169832,-0.83192 -1.744727,-1.38428 -0.860646,-0.8269 -1.071056,-1.23311 -1.191293,-2.29985 -0.350768,-3.112 1.960559,-5.70428 5.08605,-5.70428 2.025775,0 3.469076,0.74754 4.583486,2.37398 0.50083,0.73093 0.652829,4.2406 0.183655,4.2406 -0.145521,0 -0.264584,0.17449 -0.264584,0.38776 0,0.55372 -1.288713,1.79385 -2.421236,2.32995 -1.163565,0.5508 -3.269357,0.57873 -4.231351,0.0561 z"
         id="path2250" />
      <path
         style="fill:#000080;fill-opacity:1;stroke-width:0.26458338"
         d="m 20.846925,282.35004 c 0,-0.14552 -0.170571,-0.26459 -0.379045,-0.26459 -0.208475,0 -0.451072,-0.22693 -0.539105,-0.5043 -0.119674,-0.37706 -0.508029,-0.54807 -1.539183,-0.67779 -1.97004,-0.24783 -4.538782,-0.17678 -4.642321,0.12839 -0.04851,0.14298 -0.554522,0.25995 -1.124479,0.25995 -0.744753,0 -1.036285,0.11166 -1.036285,0.39688 0,0.26458 -0.264583,0.39687 -0.79375,0.39687 h -0.79375 l 0.0029,-1.65364 c 0.005,-2.85004 0.216411,-3.58604 1.084748,-3.77675 0.417096,-0.0916 0.826279,-0.27647 0.909296,-0.4108 0.08302,-0.13432 0.477289,-0.24422 0.876159,-0.24422 0.39887,0 0.854174,-0.12896 1.011787,-0.28657 0.343379,-0.34338 3.681295,-0.18991 5.274838,0.24252 0.59947,0.16268 1.688324,0.59633 2.419674,0.96366 1.645128,0.8263 1.997834,0.83039 3.05647,0.0354 0.463233,-0.34787 1.258961,-0.7188 1.768284,-0.8243 0.509323,-0.1055 1.071719,-0.30909 1.24977,-0.45244 0.179506,-0.14451 1.35824,-0.21765 2.645834,-0.16417 1.815752,0.0754 2.639423,0.24668 3.777313,0.78545 2.265204,1.07253 3.453562,1.15742 5.126065,0.3662 0.774009,-0.36617 1.716193,-0.66575 2.093745,-0.66575 0.377553,0 0.760045,-0.11907 0.849982,-0.26459 0.201859,-0.32661 4.101042,-0.35518 4.101042,-0.03 0,0.129 0.536416,0.31498 1.192038,0.4133 0.655621,0.0983 1.518825,0.34923 1.918229,0.55758 1.075738,0.56116 2.685555,0.46568 3.904602,-0.23159 3.049622,-1.74433 6.136179,-1.97097 7.690419,-0.56471 0.362743,0.32821 1.964168,0.82802 3.352523,1.04634 l 0.992188,0.15602 v 2.40292 2.40293 l -1.377875,-0.1324 c -0.757833,-0.0728 -1.422598,-0.26656 -1.477259,-0.43054 -0.05466,-0.16398 -0.28844,-0.29814 -0.519517,-0.29814 -0.231076,0 -0.608108,-0.16306 -0.837848,-0.36235 -0.235254,-0.20407 -1.313371,-0.4263 -2.468229,-0.50876 -1.665505,-0.11893 -2.050521,-0.0757 -2.050521,0.23005 0,0.20706 -0.178594,0.37648 -0.396875,0.37648 -0.218281,0 -0.396875,0.1182 -0.396875,0.26268 0,0.14447 -0.486675,0.24361 -1.081498,0.2203 -0.594823,-0.0233 -1.16037,0.0773 -1.25677,0.2236 -0.393526,0.59717 -4.011732,1.15305 -4.011732,0.61633 0,-0.14552 -0.154858,-0.26458 -0.344128,-0.26458 -0.486759,0 -1.768004,-0.62228 -1.770475,-0.8599 -0.0011,-0.10914 -0.230267,-0.19843 -0.509183,-0.19843 -0.278913,0 -0.554021,-0.14072 -0.611351,-0.31271 -0.275466,-0.82639 -5.091504,0.13488 -6.192676,1.23606 -0.807088,0.80708 -5.429053,0.63247 -6.058904,-0.2289 -0.485127,-0.66345 -3.287876,-1.20675 -4.7837,-0.9273 -0.69923,0.13063 -1.389341,0.35552 -1.53358,0.49976 -0.14424,0.14424 -0.466645,0.26225 -0.716455,0.26225 -0.249811,0 -0.493889,0.091 -0.542396,0.20227 -0.304305,0.69789 -5.512153,1.5067 -5.512153,0.85607 z"
         id="path2246-6" />
    </g>
  </g>
</svg>
