<?xml version="1.0" encoding="UTF-8" standalone="no"?>
<svg
   xmlns:dc="http://purl.org/dc/elements/1.1/"
   xmlns:cc="http://creativecommons.org/ns#"
   xmlns:rdf="http://www.w3.org/1999/02/22-rdf-syntax-ns#"
   xmlns:svg="http://www.w3.org/2000/svg"
   xmlns="http://www.w3.org/2000/svg"
   xmlns:sodipodi="http://sodipodi.sourceforge.net/DTD/sodipodi-0.dtd"
   xmlns:inkscape="http://www.inkscape.org/namespaces/inkscape"
   id="svg8"
   version="1.1"
   viewBox="0 0 75.670831 75.670831"
   height="286"
   width="286"
   sodipodi:docname="nasz domek.svg"
   inkscape:version="0.92.4 5da689c313, 2019-01-14">
  <sodipodi:namedview
     pagecolor="#ffffff"
     bordercolor="#666666"
     borderopacity="1"
     objecttolerance="10"
     gridtolerance="10"
     guidetolerance="10"
     inkscape:pageopacity="0"
     inkscape:pageshadow="2"
     inkscape:window-width="1920"
     inkscape:window-height="1020"
     id="namedview2788"
     showgrid="false"
     inkscape:zoom="1.1669735"
     inkscape:cx="-40.305203"
     inkscape:cy="203.14886"
     inkscape:window-x="0"
     inkscape:window-y="0"
     inkscape:window-maximized="1"
     inkscape:current-layer="layer7" />
  <defs
     id="defs2" />
  <metadata
     id="metadata5">
    <rdf:RDF>
      <cc:Work
         rdf:about="">
        <dc:format>image/svg+xml</dc:format>
        <dc:type
           rdf:resource="http://purl.org/dc/dcmitype/StillImage" />
        <dc:title></dc:title>
      </cc:Work>
    </rdf:RDF>
  </metadata>
  <g
     inkscape:groupmode="layer"
     id="layer7"
     inkscape:label="Layer 1">
    <rect
       style="display:inline;fill:#00ff00;fill-rule:evenodd;stroke-width:0.26458332"
       id="rect1982"
       width="68.708389"
       height="68.616776"
       x="3.5090628"
       y="3.9526381"
       rx="5.4282708"
       ry="5.9669361" />
  </g>
  <g
     inkscape:groupmode="layer"
     id="layer8"
     inkscape:label="Layer 2">
    <g
       style=""
       transform="translate(0,-221.32918)"
       id="layer1">
      <rect
         ry="5.9669409"
         rx="5.4282579"
         y="224.42496"
         x="2.6453431"
         height="70.38015"
         width="70.38015"
         id="rect815"
         style="fill:none;fill-rule:evenodd;stroke:#000080;stroke-width:5.29068613;stroke-miterlimit:4;stroke-dasharray:none;stroke-opacity:1" />
      <flowRoot
         transform="matrix(0.26458333,0,0,0.26458333,11.759859,233.35631)"
         style="font-style:normal;font-variant:normal;font-weight:800;font-stretch:normal;font-size:133.33333501px;line-height:1.25;font-family:Cantarell;-inkscape-font-specification:'Cantarell, Ultra-Bold';font-variant-ligatures:normal;font-variant-caps:normal;font-variant-numeric:normal;font-feature-settings:normal;text-align:center;letter-spacing:0px;word-spacing:0px;writing-mode:lr;text-anchor:middle;fill:#000000;fill-opacity:1;stroke:none;"
         id="flowRoot3079"
         xml:space="preserve"><flowRegion
           style="-inkscape-font-specification:'Cantarell, Ultra-Bold';font-family:Cantarell;font-weight:800;font-style:normal;font-stretch:normal;font-variant:normal;font-size:133.33333501px;text-anchor:middle;text-align:center;writing-mode:lr;font-variant-ligatures:normal;font-variant-caps:normal;font-variant-numeric:normal;font-feature-settings:normal;"
           id="flowRegion3081"><rect
             style="-inkscape-font-specification:'Cantarell, Ultra-Bold';font-family:Cantarell;font-weight:800;font-style:normal;font-stretch:normal;font-variant:normal;font-size:133.33333501px;text-anchor:middle;text-align:center;writing-mode:lr;font-variant-ligatures:normal;font-variant-caps:normal;font-variant-numeric:normal;font-feature-settings:normal;"
             y="41.543083"
             x="26.769043"
             height="123.23862"
             width="171.72595"
             id="rect3083" /></flowRegion><flowPara
           id="flowPara3085">WC</flowPara></flowRoot>      <path
         id="path3125"
         d="m 17.474746,272.91873 c 0.01053,-8.07879 -0.0554,-10.12683 -0.324813,-10.0905 -0.18591,0.0251 -1.213559,0.41202 -2.283663,0.8599 -1.070104,0.44787 -2.052369,0.81431 -2.182812,0.81431 -0.130443,0 -0.237169,-1.11741 -0.237169,-2.48312 0,-2.84855 -0.05586,-2.77217 2.844271,-3.8889 0.909505,-0.35021 1.653646,-0.72665 1.653646,-0.83653 0,-0.10988 0.192148,-0.19979 0.426996,-0.19979 0.234848,0 0.859927,-0.22927 1.389063,-0.50949 0.529136,-0.28023 1.795503,-0.89155 2.814149,-1.35851 1.018646,-0.46696 4.12535,-1.96409 6.903787,-3.32696 2.778436,-1.36288 5.130376,-2.47795 5.226532,-2.47795 0.151835,0 1.358774,-0.55089 6.390514,-2.91684 4.347527,-2.04422 6.231241,-2.904 6.362504,-2.904 0.08383,0 1.008279,-0.40293 2.054333,-0.8954 1.046052,-0.49247 2.563863,-1.19458 3.372917,-1.56024 0.80905,-0.36565 2.2378,-1.02707 3.174999,-1.46981 0.937197,-0.44274 2.656496,-1.23688 3.820663,-1.76476 1.164167,-0.52788 2.432693,-1.13041 2.818948,-1.33895 1.334587,-0.72056 1.541026,-0.54793 1.524095,1.27448 -0.02972,3.19925 -0.164373,3.60127 -1.391494,4.15446 -0.604705,0.27261 -1.54595,0.63435 -2.091653,0.80387 -0.545703,0.16952 -0.992188,0.41805 -0.992188,0.55229 0,0.13423 -0.149775,0.24406 -0.332835,0.24406 -0.183057,0 -0.891979,0.29766 -1.575379,0.66146 -0.6834,0.3638 -1.479098,0.66146 -1.768219,0.66146 -0.289118,0 -0.605536,0.12923 -0.703151,0.28717 -0.172008,0.27832 -3.888925,2.09408 -4.286639,2.09408 -0.108524,0 -1.387943,0.59531 -2.843151,1.32292 -1.455209,0.7276 -2.854193,1.32291 -3.108854,1.32291 -0.254662,0 -0.464387,0.0893 -0.466056,0.19844 -0.0016,0.10914 -0.507685,0.41672 -1.124479,0.68351 -0.616794,0.26679 -1.538163,0.70099 -2.047486,0.96489 -4.385155,2.27211 -7.505646,3.70941 -8.053407,3.70941 -0.227293,0 -0.41326,0.10289 -0.41326,0.22864 0,0.12575 -0.565547,0.44153 -1.256771,0.70173 -0.691223,0.2602 -1.491622,0.63356 -1.778663,0.82969 -0.28704,0.19614 -0.73514,0.35661 -0.995777,0.35661 -0.456693,0 -1.516629,0.48823 -1.789622,0.82433 -0.143717,0.17695 -2.805753,1.42974 -3.421573,1.61025 -0.314449,0.0922 -0.372274,1.03051 -0.340104,5.51896 0.02132,2.97436 0.04298,6.92596 0.04814,8.78136 l 0.0094,3.37343 H 42.74111 62.981735 l -2.4e-5,2.57969 -2.4e-5,2.57969 -22.760058,0.0819 -22.760059,0.0819 0.0132,-10.13608 z m 10.631849,2.42131 c -0.747157,-0.69608 -0.766241,-2.07024 -0.03958,-2.85021 0.576819,-0.61915 0.792827,-0.65041 4.752193,-0.68769 l 2.513542,-0.0237 0.132292,-2.96832 c 0.150426,-3.37521 0.410546,-3.88439 1.984375,-3.88439 1.699278,0 1.841362,0.3791 1.936792,5.16762 l 0.08471,4.25057 -0.859968,0.76778 -0.859968,0.76778 h -4.532664 c -4.195811,0 -4.575698,-0.0401 -5.111722,-0.53948 z m 12.914693,-4.89291 v -5.41553 h 9.798082 c 10.697593,0 11.376128,0.0832 11.899434,1.45964 0.144595,0.38031 0.262901,2.58873 0.262901,4.90759 v 4.21611 l -2.050521,0.004 c -1.127787,0.002 -6.06888,0.0579 -10.980208,0.12386 l -8.929688,0.1199 v -5.41552 z m -12.951698,-0.9042 c -1.217212,-1.26687 -1.472696,-1.97887 -1.210871,-3.37452 0.368281,-1.9631 1.645799,-2.9652 3.798422,-2.97951 1.297565,-0.009 1.492672,0.0743 2.450547,1.04181 1.030371,1.04072 1.039021,1.06641 0.868553,2.57969 -0.31227,2.77208 -0.947441,3.49606 -3.250422,3.70489 l -1.583987,0.14363 z"
         style="fill:#000000;stroke-width:0.26458332" />
    </g>
  </g>
</svg>
