<?xml version="1.0" encoding="UTF-8" standalone="no"?>
<svg
   xmlns:dc="http://purl.org/dc/elements/1.1/"
   xmlns:cc="http://creativecommons.org/ns#"
   xmlns:rdf="http://www.w3.org/1999/02/22-rdf-syntax-ns#"
   xmlns:svg="http://www.w3.org/2000/svg"
   xmlns="http://www.w3.org/2000/svg"
   xmlns:sodipodi="http://sodipodi.sourceforge.net/DTD/sodipodi-0.dtd"
   xmlns:inkscape="http://www.inkscape.org/namespaces/inkscape"
   id="svg8"
   version="1.1"
   viewBox="0 0 75.670831 75.670831"
   height="286"
   width="286"
   sodipodi:docname="parkomat.svg"
   inkscape:version="0.92.4 5da689c313, 2019-01-14">
  <sodipodi:namedview
     pagecolor="#ffffff"
     bordercolor="#666666"
     borderopacity="1"
     objecttolerance="10"
     gridtolerance="10"
     guidetolerance="10"
     inkscape:pageopacity="0"
     inkscape:pageshadow="2"
     inkscape:window-width="1920"
     inkscape:window-height="1020"
     id="namedview10065"
     showgrid="false"
     inkscape:zoom="0.82517483"
     inkscape:cx="-75.741525"
     inkscape:cy="143"
     inkscape:window-x="0"
     inkscape:window-y="0"
     inkscape:window-maximized="1"
     inkscape:current-layer="layer20" />
  <defs
     id="defs2" />
  <metadata
     id="metadata5">
    <rdf:RDF>
      <cc:Work
         rdf:about="">
        <dc:format>image/svg+xml</dc:format>
        <dc:type
           rdf:resource="http://purl.org/dc/dcmitype/StillImage" />
        <dc:title />
      </cc:Work>
    </rdf:RDF>
  </metadata>
  <g
     inkscape:groupmode="layer"
     id="layer20"
     inkscape:label="Layer 1">
    <rect
       style="display:inline;fill:#ffffff;fill-rule:evenodd;stroke-width:0.26458332"
       id="rect1982"
       width="68.708389"
       height="68.616776"
       x="3.2587671"
       y="4.1541104"
       rx="5.4282708"
       ry="5.9669361" />
  </g>
  <g
     inkscape:groupmode="layer"
     id="layer21"
     inkscape:label="Layer 2">
    <g
       style=""
       transform="translate(0,-221.32918)"
       id="layer1">
      <rect
         ry="5.9669409"
         rx="5.4282579"
         y="224.42496"
         x="2.6453431"
         height="70.38015"
         width="70.38015"
         id="rect815"
         style="fill:none;fill-rule:evenodd;stroke:#000080;stroke-width:5.29068613;stroke-miterlimit:4;stroke-dasharray:none;stroke-opacity:1" />
      <path
         id="path2999"
         d="m 15.210463,283.40985 c -0.205756,-0.8198 0.108799,-45.52753 0.331698,-47.1443 l 0.155593,-1.12857 9.692782,0.14733 c 8.90693,0.13539 11.422336,0.31356 12.867784,0.91147 0.291041,0.12039 0.945885,0.37244 1.455208,0.56011 0.509323,0.18767 1.339781,0.73595 1.845463,1.21839 0.505683,0.48245 1.130761,0.94425 1.389063,1.02623 0.258302,0.082 0.470191,0.23033 0.470866,0.32967 7.93e-4,0.0993 0.357859,0.5611 0.79375,1.02615 0.435888,0.46505 0.792525,0.95649 0.792525,1.09208 0,0.1356 0.180043,0.39596 0.400097,0.57859 0.654307,0.54303 2.009474,3.63354 2.539228,5.79081 0.635661,2.58856 0.627454,5.43452 -0.02336,8.09714 -0.576117,2.35706 -2.126602,5.63558 -3.243498,6.85843 -0.401944,0.44007 -0.730808,0.88504 -0.730808,0.98882 0,0.10378 -0.47625,0.45635 -1.058334,0.7835 -0.582083,0.32715 -1.058333,0.69174 -1.058333,0.81019 0,0.36165 -2.47458,1.79347 -3.108854,1.79883 -0.327422,0.003 -0.595313,0.10514 -0.595313,0.2275 0,0.46781 -3.039691,0.87135 -6.281812,0.83396 -1.856503,-0.0214 -4.417266,-0.0298 -5.690573,-0.0185 l -2.315105,0.0204 -0.0036,7.34219 c -0.002,4.0382 -0.07541,7.61007 -0.163151,7.9375 -0.15667,0.5846 -0.232637,0.59531 -4.224681,0.59531 h -4.065142 z m 20.765813,-25.12214 c 2.485442,-1.11883 3.936203,-3.86656 3.764189,-7.12937 -0.119267,-2.26229 -1.74971,-4.82267 -3.700596,-5.81126 -1.184121,-0.60004 -1.561134,-0.64192 -6.29197,-0.69894 -2.767806,-0.0334 -5.170168,0.0245 -5.338581,0.12859 -0.334473,0.20671 -0.45932,13.67504 -0.129818,14.00454 0.09701,0.097 2.43361,0.17639 5.192436,0.17639 4.799182,0 5.080392,-0.029 6.50434,-0.66995 z m 15.323473,23.62256 c -0.07417,-2.10695 -0.09983,-2.18557 -0.738304,-2.26202 -0.740079,-0.0886 -1.078807,-0.81541 -3.292486,-7.06455 -0.670136,-1.89177 -1.345178,-3.6897 -1.500089,-3.99541 -0.635688,-1.25446 -0.01204,-2.02032 2.411325,-2.96123 0.922837,-0.35831 4.949547,-0.86171 5.427065,-0.67847 0.216572,0.0831 0.403169,0.34672 0.414657,0.58582 0.0132,0.27451 0.07007,0.31283 0.15434,0.10398 0.149926,-0.37155 2.096008,-0.45821 2.315474,-0.1031 0.07738,0.1252 0.664554,0.29943 1.304838,0.3872 2.644455,0.36246 3.253581,1.28999 2.319086,3.53133 -0.293018,0.70279 -0.961824,2.46842 -1.486233,3.92363 -0.52441,1.45521 -1.060619,2.88396 -1.191572,3.175 -0.130956,0.29104 -0.415957,0.97565 -0.633336,1.52136 -0.217379,0.5457 -0.519467,0.99218 -0.671306,0.99218 -0.151839,0 -0.574633,0.2596 -0.939541,0.57689 -0.59527,0.51757 -0.663472,0.77596 -0.663472,2.51354 v 1.93666 h -1.5768 -1.576801 z m 6.910779,-12.89844 c 0.288965,-0.86249 0.261983,-0.96474 -0.393163,-1.4899 -1.377899,-1.10452 -6.71608,-1.132 -9.15403,-0.0471 -0.975389,0.43404 -1.19102,0.64056 -1.020657,0.97752 0.118795,0.23497 0.340376,0.7438 0.492397,1.13072 l 0.276403,0.70352 1.33604,-0.39165 c 0.873895,-0.25618 2.156481,-0.36224 3.707913,-0.30664 2.079149,0.0745 2.386738,0.0279 2.492298,-0.378 0.204283,-0.78545 0.963716,-0.55957 0.963716,0.28663 0,1.49889 0.725099,1.22814 1.299083,-0.48507 z"
         style="fill:#000080;stroke-width:0.26458335" />
    </g>
  </g>
</svg>
