<?xml version="1.0" encoding="UTF-8" standalone="no"?>
<svg
   xmlns:dc="http://purl.org/dc/elements/1.1/"
   xmlns:cc="http://creativecommons.org/ns#"
   xmlns:rdf="http://www.w3.org/1999/02/22-rdf-syntax-ns#"
   xmlns:svg="http://www.w3.org/2000/svg"
   xmlns="http://www.w3.org/2000/svg"
   xmlns:sodipodi="http://sodipodi.sourceforge.net/DTD/sodipodi-0.dtd"
   xmlns:inkscape="http://www.inkscape.org/namespaces/inkscape"
   id="svg8"
   version="1.1"
   viewBox="0 0 75.670831 75.670831"
   height="286"
   width="286"
   sodipodi:docname="parking.svg"
   inkscape:version="0.92.4 5da689c313, 2019-01-14">
  <sodipodi:namedview
     pagecolor="#ffffff"
     bordercolor="#666666"
     borderopacity="1"
     objecttolerance="10"
     gridtolerance="10"
     guidetolerance="10"
     inkscape:pageopacity="0"
     inkscape:pageshadow="2"
     inkscape:window-width="1920"
     inkscape:window-height="1020"
     id="namedview9462"
     showgrid="false"
     inkscape:zoom="0.82517483"
     inkscape:cx="-75.741525"
     inkscape:cy="143"
     inkscape:window-x="0"
     inkscape:window-y="0"
     inkscape:window-maximized="1"
     inkscape:current-layer="layer18" />
  <defs
     id="defs2" />
  <metadata
     id="metadata5">
    <rdf:RDF>
      <cc:Work
         rdf:about="">
        <dc:format>image/svg+xml</dc:format>
        <dc:type
           rdf:resource="http://purl.org/dc/dcmitype/StillImage" />
        <dc:title />
      </cc:Work>
    </rdf:RDF>
  </metadata>
  <g
     inkscape:groupmode="layer"
     id="layer18"
     inkscape:label="Layer 1">
    <rect
       style="display:inline;fill:#ffffff;fill-rule:evenodd;stroke-width:0.26458332"
       id="rect1982"
       width="68.708389"
       height="68.616776"
       x="3.7879376"
       y="3.800827"
       rx="5.4282708"
       ry="5.9669361" />
  </g>
  <g
     inkscape:groupmode="layer"
     id="layer19"
     inkscape:label="Layer 2">
    <g
       style=""
       transform="translate(0,-221.32918)"
       id="layer1">
      <rect
         ry="5.9669409"
         rx="5.4282579"
         y="224.42496"
         x="2.6453431"
         height="70.38015"
         width="70.38015"
         id="rect815"
         style="fill:none;fill-rule:evenodd;stroke:#000080;stroke-width:5.29068613;stroke-miterlimit:4;stroke-dasharray:none;stroke-opacity:1" />
      <path
         id="path2967"
         d="m 20.101443,284.14797 -0.611143,-0.10569 0.06823,-18.16963 c 0.03753,-9.9933 0.116752,-20.99825 0.176056,-24.45545 l 0.107827,-6.28583 0.661923,-0.16613 c 0.364058,-0.0914 0.738441,-0.0607 0.831962,0.0681 0.09352,0.12883 5.051602,0.27087 11.017956,0.31563 8.251454,0.0619 11.195537,0.17068 12.300261,0.45443 0.798789,0.20517 1.49332,0.49597 1.543403,0.64622 0.05008,0.15024 0.231728,0.27317 0.403657,0.27317 0.444526,0 2.242865,0.99461 2.892295,1.59965 0.301654,0.28103 0.73583,0.57117 0.96484,0.64475 0.229008,0.0736 0.654503,0.49131 0.945544,0.9283 0.291042,0.43699 0.677995,0.79487 0.859896,0.79529 0.181901,4.3e-4 0.330729,0.15231 0.330729,0.33753 0,0.18522 0.414377,0.96596 0.920835,1.73498 1.02924,1.56282 1.474184,2.47419 2.153274,4.41055 0.682763,1.9468 0.681898,7.64097 -0.0016,9.72343 -0.274582,0.83675 -0.602003,1.52136 -0.727604,1.52136 -0.125486,0 -0.228251,0.16359 -0.228251,0.36355 0,0.71712 -1.453374,2.96847 -2.764868,4.28293 -2.50548,2.51114 -4.595953,3.7753 -7.645621,4.62348 -1.661951,0.46223 -2.678209,0.52414 -8.337819,0.50795 -3.544851,-0.0101 -6.497568,0.0339 -6.561595,0.098 -0.06403,0.064 -0.154285,3.54347 -0.200575,7.7321 -0.07803,7.06092 -0.119974,7.64188 -0.575724,7.97513 -0.368054,0.26913 -1.423868,0.34593 -4.202158,0.30568 -2.040829,-0.0296 -3.985613,-0.10133 -4.321742,-0.15946 z m 22.457831,-25.60484 c 1.74357,-0.89821 2.629836,-1.78455 3.449753,-3.45003 0.735341,-1.49369 0.814046,-1.87542 0.716637,-3.4757 -0.182763,-3.00247 -1.545359,-5.22902 -3.939722,-6.43769 l -1.514172,-0.76435 -5.733791,-0.0357 c -3.153585,-0.0196 -5.81487,0.0453 -5.913966,0.14414 -0.0991,0.0989 -0.180176,3.35497 -0.180176,7.23573 v 7.05594 l 2.116667,0.13229 c 1.164167,0.0728 3.910957,0.11666 6.103978,0.0976 3.245028,-0.0283 4.156249,-0.12177 4.894792,-0.50223 z"
         style="fill:#000080;stroke-width:0.26458335" />
    </g>
  </g>
</svg>
