<?xml version="1.0" encoding="UTF-8" standalone="no"?>
<svg
   xmlns:dc="http://purl.org/dc/elements/1.1/"
   xmlns:cc="http://creativecommons.org/ns#"
   xmlns:rdf="http://www.w3.org/1999/02/22-rdf-syntax-ns#"
   xmlns:svg="http://www.w3.org/2000/svg"
   xmlns="http://www.w3.org/2000/svg"
   xmlns:sodipodi="http://sodipodi.sourceforge.net/DTD/sodipodi-0.dtd"
   xmlns:inkscape="http://www.inkscape.org/namespaces/inkscape"
   id="svg8"
   version="1.1"
   viewBox="0 0 75.670831 75.670831"
   height="286"
   width="286"
   sodipodi:docname="policja.svg"
   inkscape:version="0.92.4 5da689c313, 2019-01-14">
  <sodipodi:namedview
     pagecolor="#ffffff"
     bordercolor="#666666"
     borderopacity="1"
     objecttolerance="10"
     gridtolerance="10"
     guidetolerance="10"
     inkscape:pageopacity="0"
     inkscape:pageshadow="2"
     inkscape:window-width="1920"
     inkscape:window-height="1020"
     id="namedview12499"
     showgrid="false"
     inkscape:zoom="0.82517483"
     inkscape:cx="-75.741525"
     inkscape:cy="143"
     inkscape:window-x="0"
     inkscape:window-y="0"
     inkscape:window-maximized="1"
     inkscape:current-layer="layer28" />
  <defs
     id="defs2" />
  <metadata
     id="metadata5">
    <rdf:RDF>
      <cc:Work
         rdf:about="">
        <dc:format>image/svg+xml</dc:format>
        <dc:type
           rdf:resource="http://purl.org/dc/dcmitype/StillImage" />
        <dc:title />
      </cc:Work>
    </rdf:RDF>
  </metadata>
  <g
     inkscape:groupmode="layer"
     id="layer28"
     inkscape:label="Layer 1">
    <rect
       style="display:inline;fill:#ffffff;fill-rule:evenodd;stroke-width:0.26458332"
       id="rect1982"
       width="68.708389"
       height="68.616776"
       x="2.7295966"
       y="3.624944"
       rx="5.4282708"
       ry="5.9669361" />
  </g>
  <g
     inkscape:groupmode="layer"
     id="layer29"
     inkscape:label="Layer 2">
    <g
       style=""
       transform="translate(0,-221.32918)"
       id="layer1">
      <rect
         ry="5.9669409"
         rx="5.4282579"
         y="224.42496"
         x="2.6453431"
         height="70.38015"
         width="70.38015"
         id="rect815"
         style="fill:none;fill-rule:evenodd;stroke:#000080;stroke-width:5.29068613;stroke-miterlimit:4;stroke-dasharray:none;stroke-opacity:1" />
      <path
         id="path2124"
         d="m 36.908008,282.92967 c -0.07322,-0.1908 -0.09924,-1.70884 -0.05784,-3.37344 l 0.07528,-3.02653 7.805208,-0.0643 c 4.292864,-0.0353 7.960304,-0.12332 8.149867,-0.19548 0.237858,-0.0905 0.319845,-0.56254 0.264584,-1.52322 l -0.08008,-1.39202 -6.283854,-0.0709 c -3.45612,-0.039 -6.283854,-0.14748 -6.283854,-0.24103 0,-0.0935 0.684609,-1.06405 1.521354,-2.15666 0.836745,-1.09261 2.381684,-3.15899 3.433199,-4.59195 1.051515,-1.43296 2.034688,-2.75227 2.184828,-2.93178 0.75969,-0.90833 3.024214,-3.89754 5.031452,-6.6416 l 2.248958,-3.07451 1.035426,0.11142 c 0.569486,0.0613 1.343392,0.3392 1.719791,0.61761 1.487702,1.10038 1.471938,0.94688 1.551517,15.10712 0.05367,9.5491 -0.0084,13.1596 -0.230833,13.42761 -0.438081,0.52785 -21.882666,0.54695 -22.085003,0.0197 z m -0.114856,-16.54233 c 0,-4.18238 -0.09005,-6.12951 -0.283482,-6.12951 -0.373668,0 -0.703069,0.35161 -2.106888,2.24896 -0.646012,0.87312 -1.981485,2.56468 -2.967716,3.75902 -2.018343,2.44424 -2.956072,2.88519 -4.527077,2.12876 -0.881807,-0.42459 -9.843656,-7.46833 -10.447575,-8.21148 -0.514352,-0.63294 -0.483461,-2.12667 0.06117,-2.95788 0.583202,-0.89008 2.092658,-1.54847 3.061981,-1.33557 0.399994,0.0878 1.788101,1.01734 3.084683,2.06552 4.979375,4.02544 4.887102,3.99681 6.356798,1.97194 2.414922,-3.32716 4.461645,-5.57573 5.507712,-6.05089 0.958914,-0.43557 1.871738,-0.48653 8.808832,-0.49174 4.770152,-0.004 7.739063,0.0916 7.739063,0.2481 0,0.2408 -1.019861,1.62771 -5.455521,7.41901 -7.347891,9.59356 -8.625641,11.25689 -8.72282,11.35503 -0.06004,0.0606 -0.109159,-2.64804 -0.109159,-6.01927 z m 22.775055,-0.99219 c 0.0127,-0.30822 0.07539,-0.37091 0.159851,-0.15985 0.07643,0.191 0.06703,0.4192 -0.02088,0.50712 -0.08792,0.0879 -0.150453,-0.0684 -0.138964,-0.34727 z M 21.66494,255.56147 c -0.514238,-0.40018 -2.023729,-1.61283 -3.354424,-2.69478 l -2.419447,-1.96718 v -6.16876 -6.16876 h 5.012081 c 4.879405,0 5.022983,0.0156 5.423958,0.58804 0.339654,0.48493 0.411878,1.52163 0.411878,5.91212 0,5.90176 -0.01273,5.94684 -1.785938,6.32371 l -0.859895,0.18276 v 1.92235 c 0,1.52632 -0.09968,2.01255 -0.483855,2.36022 -0.650689,0.58887 -0.854363,0.55852 -1.944358,-0.28972 z m 3.948761,-10.38489 c 0.03594,-2.69214 -0.03609,-5.05247 -0.160062,-5.24519 -0.266694,-0.41459 -6.514459,-0.55651 -6.909139,-0.15694 -0.144434,0.14622 0.666855,0.92664 2.040157,1.96254 3.413101,2.57455 3.243912,2.28128 3.243912,5.62291 v 2.87729 l 0.859896,-0.0829 0.859896,-0.0829 z m 17.499916,5.3291 c -1.582865,-0.83971 -2.718335,-2.26714 -3.23795,-4.07052 -0.293801,-1.01967 -0.411229,-1.13352 -1.240496,-1.20263 -1.874317,-0.15622 -1.890919,-0.3792 -0.167196,-2.24563 l 0.922666,-0.99906 6.063361,0.0288 c 3.334847,0.0159 6.218427,0.12466 6.407954,0.2418 0.255913,0.15816 0.31506,0.81638 0.229841,2.55772 -0.09772,1.9968 -0.221174,2.50473 -0.831901,3.42271 -1.892726,2.84497 -5.279781,3.78745 -8.146279,2.26678 z m 8.182009,-9.21401 c 0.190994,-0.0764 0.419198,-0.067 0.507119,0.0209 0.08792,0.0879 -0.06835,0.15045 -0.347266,0.13896 -0.308226,-0.0127 -0.370919,-0.0754 -0.159853,-0.15985 z m -9.598385,-0.81321 c -2.723922,-0.0995 -2.643724,-0.0445 -4.686313,-3.21267 -0.898952,-1.39431 -0.967087,-1.3782 5.669203,-1.3406 3.383359,0.0192 6.895703,0.0984 7.805208,0.17602 l 1.653646,0.14118 v 2.08584 2.08585 h -3.682526 c -2.025391,0 -3.841094,0.034 -4.034896,0.0755 -0.193805,0.0415 -1.419749,0.0365 -2.724322,-0.0111 z"
         style="fill:#000080;stroke-width:0.26458332" />
    </g>
  </g>
</svg>
