<?xml version="1.0" encoding="UTF-8" standalone="no"?>
<svg
   xmlns:dc="http://purl.org/dc/elements/1.1/"
   xmlns:cc="http://creativecommons.org/ns#"
   xmlns:rdf="http://www.w3.org/1999/02/22-rdf-syntax-ns#"
   xmlns:svg="http://www.w3.org/2000/svg"
   xmlns="http://www.w3.org/2000/svg"
   xmlns:sodipodi="http://sodipodi.sourceforge.net/DTD/sodipodi-0.dtd"
   xmlns:inkscape="http://www.inkscape.org/namespaces/inkscape"
   width="286"
   height="286"
   viewBox="0 0 75.670831 75.670831"
   version="1.1"
   id="svg8"
   sodipodi:docname="sklep.svg"
   inkscape:version="0.92.4 5da689c313, 2019-01-14">
  <sodipodi:namedview
     pagecolor="#ffffff"
     bordercolor="#666666"
     borderopacity="1"
     objecttolerance="10"
     gridtolerance="10"
     guidetolerance="10"
     inkscape:pageopacity="0"
     inkscape:pageshadow="2"
     inkscape:window-width="1920"
     inkscape:window-height="1176"
     id="namedview3651"
     showgrid="false"
     inkscape:zoom="2.3339469"
     inkscape:cx="-4.7491237"
     inkscape:cy="172.38089"
     inkscape:window-x="1920"
     inkscape:window-y="0"
     inkscape:window-maximized="1"
     inkscape:current-layer="svg8" />
  <defs
     id="defs2" />
  <metadata
     id="metadata5">
    <rdf:RDF>
      <cc:Work
         rdf:about="">
        <dc:format>image/svg+xml</dc:format>
        <dc:type
           rdf:resource="http://purl.org/dc/dcmitype/StillImage" />
        <dc:title />
      </cc:Work>
    </rdf:RDF>
  </metadata>
  <g
     id="layer32">
    <rect
       ry="5.9669361"
       rx="5.4282708"
       y="3.9774644"
       x="3.4812233"
       height="68.616776"
       width="68.708389"
       id="rect1982"
       style="display:inline;fill:#ffffff;fill-rule:evenodd;stroke-width:0.26458332" />
  </g>
  <rect
     style="fill:none;fill-rule:evenodd;stroke:#000080;stroke-width:5.29068613;stroke-miterlimit:4;stroke-dasharray:none;stroke-opacity:1"
     id="rect815"
     width="70.38015"
     height="70.38015"
     x="2.6453431"
     y="3.0957773"
     rx="5.4282579"
     ry="5.9669409" />
  <path
     inkscape:connector-curvature="0"
     style="fill:#000000;stroke-width:0.66145831;stroke-miterlimit:4;stroke-dasharray:none;stroke:#000000;stroke-opacity:1;stroke-linecap:round;paint-order:normal;stroke-linejoin:round"
     d="m 29.550568,62.995601 c -1.339354,-0.425377 -2.331968,-1.27956 -2.926963,-2.518777 -0.623941,-1.299501 -0.608899,-2.782133 0.0414,-4.081115 0.858466,-1.714794 2.847489,-2.765066 4.725797,-2.495389 2.149159,0.308562 3.72176,1.881167 4.030326,4.030323 0.319386,2.224521 -1.105699,4.384794 -3.339878,5.062896 -0.608016,0.184537 -1.952677,0.185635 -2.530686,0.002 z m 2.408323,-2.207626 c 1.971678,-1.016836 1.828103,-3.792339 -0.240895,-4.656821 -1.805545,-0.754407 -3.831376,0.963169 -3.401019,2.883509 0.369637,1.649391 2.176374,2.529124 3.641914,1.773312 z m 14.50606,2.102362 c -3.221052,-1.19723 -4.137636,-5.240197 -1.734697,-7.651604 1.847004,-1.85351 4.852373,-1.832359 6.62947,0.04666 2.417805,2.556475 1.330808,6.688831 -2.027587,7.708145 -0.771282,0.234093 -2.087152,0.186728 -2.867186,-0.103201 z M 48.5587,60.995372 c 2.337423,-0.501284 2.762787,-3.769754 0.620418,-4.767228 -2.205091,-1.026672 -4.484441,1.164962 -3.461657,3.328442 0.330461,0.699015 0.778961,1.108221 1.480017,1.350365 0.677827,0.234117 0.680933,0.23432 1.361222,0.08842 z M 26.979008,50.392315 c -3.30397,-0.517236 -5.149951,-4.094965 -3.645103,-7.064644 0.155286,-0.306441 0.546125,-0.829508 0.86853,-1.162373 l 0.586193,-0.605211 -2.944349,-11.52066 c -1.619392,-6.336363 -3.0188,-11.730893 -3.109795,-11.987845 -0.33181,-0.936965 -1.20381,-1.81282 -2.20244,-2.212181 -0.391715,-0.156649 -0.899259,-0.202298 -2.705496,-0.243331 l -2.223329,-0.05051 v -1.058171 -1.058171 h 2.289664 c 2.087754,0 2.355247,0.02138 3.033369,0.242454 1.035827,0.337687 1.883823,0.876633 2.591496,1.647034 0.931437,1.013998 1.222503,1.699545 1.952618,4.598999 0.355318,1.411052 0.693264,2.746362 0.750991,2.967355 l 0.104957,0.401806 h 3.210321 c 1.765676,0 3.210321,-0.02068 3.210321,-0.04595 0,-0.02527 -0.359203,-1.144718 -0.798231,-2.487652 -0.439026,-1.342936 -0.788598,-2.449654 -0.776825,-2.459376 0.05426,-0.0448 12.010283,-3.893531 12.027138,-3.871619 0.01052,0.01367 0.680667,2.013801 1.489217,4.44473 1.395943,4.196943 1.483151,4.419869 1.72904,4.419869 0.142421,0 0.258946,-0.0316 0.258946,-0.07021 0,-0.03862 -0.346115,-1.147042 -0.769144,-2.463165 -0.423031,-1.316122 -0.743842,-2.418252 -0.712916,-2.449177 0.147038,-0.147039 11.930621,-3.886954 11.979809,-3.802194 0.03098,0.05342 0.68318,2.050939 1.449291,4.438928 l 1.392928,4.341799 4.05207,0.002 c 3.80962,0.0019 4.04855,0.01323 3.99315,0.18952 -0.12657,0.402786 -5.42008,19.318516 -5.42008,19.368011 0,0.02895 -7.102511,0.05263 -15.78335,0.05263 H 27.074658 l -0.554445,0.276291 c -2.002118,0.997701 -1.985787,3.718205 0.0288,4.79724 l 0.429998,0.230315 15.459884,0.02819 15.459874,0.02823 -0.0305,1.096849 -0.0305,1.09685 -15.161483,0.01361 c -8.33882,0.0075 -15.402574,-0.02414 -15.697233,-0.07027 z M 59.089159,33.039064 c 1.1601,-4.153747 2.09633,-7.565215 2.0805,-7.581041 -0.0158,-0.01583 -8.635611,-0.01659 -19.155078,-0.0017 l -19.126304,0.02708 1.914695,7.446811 c 1.053082,4.095747 1.935884,7.507247 1.961783,7.581117 0.0375,0.106958 3.118595,0.128778 15.131109,0.107148 l 15.084015,-0.02717 z M 38.7969,20.259928 c -0.533187,-1.605885 -1.000642,-2.954688 -1.038788,-2.997339 -0.06562,-0.07337 -7.696027,2.330725 -7.85304,2.474239 -0.04075,0.03725 0.195383,0.827134 0.524736,1.755306 l 0.598827,1.687587 h 4.368848 4.368849 z m 14.889288,2.785857 c -0.02709,-0.07366 -0.472803,-1.411679 -0.99046,-2.973366 -0.517661,-1.561687 -0.954182,-2.854992 -0.970044,-2.874011 -0.02073,-0.02486 -6.223067,1.951069 -7.829418,2.494277 -0.07583,0.02564 0.09992,0.668021 0.482169,1.762332 l 0.601495,1.72198 4.377759,0.0014 c 3.457501,0.0011 4.367404,-0.02679 4.328499,-0.132573 z"
     id="path3483" />
</svg>
