<?xml version="1.0" encoding="UTF-8" standalone="no"?>
<svg
   xmlns:dc="http://purl.org/dc/elements/1.1/"
   xmlns:cc="http://creativecommons.org/ns#"
   xmlns:rdf="http://www.w3.org/1999/02/22-rdf-syntax-ns#"
   xmlns:svg="http://www.w3.org/2000/svg"
   xmlns="http://www.w3.org/2000/svg"
   xmlns:sodipodi="http://sodipodi.sourceforge.net/DTD/sodipodi-0.dtd"
   xmlns:inkscape="http://www.inkscape.org/namespaces/inkscape"
   id="svg8"
   version="1.1"
   viewBox="0 0 75.670831 75.670831"
   height="286"
   width="286"
   sodipodi:docname="boisko do siatkówki.svg"
   inkscape:version="0.92.4 5da689c313, 2019-01-14">
  <sodipodi:namedview
     pagecolor="#ffffff"
     bordercolor="#666666"
     borderopacity="1"
     objecttolerance="10"
     gridtolerance="10"
     guidetolerance="10"
     inkscape:pageopacity="0"
     inkscape:pageshadow="2"
     inkscape:window-width="1920"
     inkscape:window-height="1020"
     id="namedview2173"
     showgrid="false"
     inkscape:zoom="0.82517483"
     inkscape:cx="-75.741525"
     inkscape:cy="143"
     inkscape:window-x="0"
     inkscape:window-y="0"
     inkscape:window-maximized="1"
     inkscape:current-layer="layer6" />
  <defs
     id="defs2" />
  <metadata
     id="metadata5">
    <rdf:RDF>
      <cc:Work
         rdf:about="">
        <dc:format>image/svg+xml</dc:format>
        <dc:type
           rdf:resource="http://purl.org/dc/dcmitype/StillImage" />
        <dc:title />
      </cc:Work>
    </rdf:RDF>
  </metadata>
  <g
     inkscape:groupmode="layer"
     id="layer6"
     inkscape:label="Layer 2">
    <rect
       style="display:inline;fill:#ffffff;fill-rule:evenodd;stroke-width:0.26458332"
       id="rect1982"
       width="68.708389"
       height="68.616776"
       x="2.6453431"
       y="3.0957773"
       rx="5.4282708"
       ry="5.9669361" />
  </g>
  <g
     inkscape:groupmode="layer"
     id="layer5"
     inkscape:label="Layer 1">
    <g
       transform="translate(0,-221.32918)"
       id="layer1">
      <rect
         ry="5.9669409"
         rx="5.4282579"
         y="224.42496"
         x="2.6453431"
         height="70.38015"
         width="70.38015"
         id="rect815"
         style="fill:none;fill-rule:evenodd;stroke:#000080;stroke-width:5.29068613;stroke-miterlimit:4;stroke-dasharray:none;stroke-opacity:1" />
      <flowRoot
         transform="matrix(0.26458333,0,0,0.26458333,11.759859,233.35631)"
         style="font-style:normal;font-variant:normal;font-weight:800;font-stretch:normal;font-size:133.33332825px;line-height:1.25;font-family:Cantarell;-inkscape-font-specification:'Cantarell, Ultra-Bold';font-variant-ligatures:normal;font-variant-caps:normal;font-variant-numeric:normal;font-feature-settings:normal;text-align:center;letter-spacing:0px;word-spacing:0px;writing-mode:lr-tb;text-anchor:middle;fill:#000000;fill-opacity:1;stroke:none"
         id="flowRoot3079"
         xml:space="preserve"><flowRegion
           style="font-style:normal;font-variant:normal;font-weight:800;font-stretch:normal;font-size:133.33332825px;font-family:Cantarell;-inkscape-font-specification:'Cantarell, Ultra-Bold';font-variant-ligatures:normal;font-variant-caps:normal;font-variant-numeric:normal;font-feature-settings:normal;text-align:center;writing-mode:lr-tb;text-anchor:middle"
           id="flowRegion3081"><rect
             style="font-style:normal;font-variant:normal;font-weight:800;font-stretch:normal;font-size:133.33332825px;font-family:Cantarell;-inkscape-font-specification:'Cantarell, Ultra-Bold';font-variant-ligatures:normal;font-variant-caps:normal;font-variant-numeric:normal;font-feature-settings:normal;text-align:center;writing-mode:lr-tb;text-anchor:middle"
             y="41.543083"
             x="26.769043"
             height="123.23862"
             width="171.72595"
             id="rect3083" /></flowRegion><flowPara
           id="flowPara3085">WC</flowPara></flowRoot>      <path
         id="path3221"
         d="m 48.702824,279.59524 -3.681079,-3.69595 -3.514867,-0.18056 c -1.933177,-0.0993 -3.557782,-0.25183 -3.610234,-0.33894 -0.05245,-0.0871 -0.182827,-2.57616 -0.289723,-5.53121 l -0.194357,-5.37283 1.42334,0.0812 1.423341,0.0812 0.0737,3.81846 c 0.04371,2.26452 0.191485,3.96037 0.363126,4.16718 0.340333,0.41008 1.707534,0.46744 1.945968,0.0816 0.09079,-0.1469 0.162175,-1.66495 0.158637,-3.37344 -0.0035,-1.70849 0.06152,-3.4933 0.144574,-3.96624 0.1434,-0.81658 0.209503,-0.8599 1.312186,-0.8599 0.638649,0 1.169951,0.0298 1.180672,0.0661 0.01072,0.0364 0.07757,1.1377 0.14855,2.44739 0.131174,2.42029 0.25428,4.55754 0.323064,5.60877 0.02093,0.31992 0.338979,0.90637 0.706769,1.30322 2.292588,2.47375 3.167512,3.3458 5.10754,5.09076 1.191525,1.07172 2.235097,2.22227 2.319049,2.55676 0.163248,0.65043 -0.646279,1.71237 -1.305364,1.71237 -0.194601,0 -2.010304,-1.66318 -4.034896,-3.69596 z M 35.069113,260.45125 c -0.275686,-0.31662 -1.26094,-1.36431 -2.189453,-2.32819 l -1.688205,-1.75252 -4.620225,-0.19248 -4.620225,-0.19248 -0.172443,-3.98405 c -0.28394,-6.56004 -0.246059,-7.45545 0.337763,-7.9838 0.616609,-0.55802 1.477003,-0.35656 1.906777,0.44648 0.185771,0.34712 0.295671,2.03478 0.289014,4.43822 -0.0059,2.13297 0.08826,4.03831 0.209254,4.23409 0.162315,0.26263 1.231078,0.38638 4.07633,0.47197 l 3.856336,0.11602 v -0.60625 c 0,-0.41742 -0.635321,-1.19008 -2.039784,-2.48072 -1.121882,-1.03096 -2.588113,-2.42531 -3.258292,-3.09857 l -1.218507,-1.2241 0.01714,-4.93713 c 0.0179,-5.15419 0.08112,-5.43886 1.207771,-5.43886 0.907156,0 1.016542,0.41172 1.24815,4.69786 l 0.232588,4.30429 2.368485,2.25555 c 1.302667,1.24056 2.666142,2.5284 3.029944,2.86187 0.363802,0.33347 0.910946,0.89281 1.215874,1.24297 0.304929,0.35016 2.662345,2.67727 5.238702,5.17136 l 4.684285,4.53471 -4.805018,0.01 c -4.610611,0.009 -4.825299,-0.0136 -5.306266,-0.56596 z m -1.802124,-13.04678 c -1.71492,-2.18016 0.641729,-5.17654 3.276235,-4.16559 0.992331,0.3808 1.508438,2.47098 0.894678,3.62336 -0.493727,0.927 -1.06525,1.22199 -2.384975,1.23096 -1.027287,0.007 -1.330743,-0.11004 -1.785938,-0.68873 z"
         style="fill:#000000;stroke-width:0.26458335"
         inkscape:connector-curvature="0" />
    </g>
  </g>
</svg>
