<?xml version="1.0" encoding="UTF-8" standalone="no"?>
<svg
   xmlns:dc="http://purl.org/dc/elements/1.1/"
   xmlns:cc="http://creativecommons.org/ns#"
   xmlns:rdf="http://www.w3.org/1999/02/22-rdf-syntax-ns#"
   xmlns:svg="http://www.w3.org/2000/svg"
   xmlns="http://www.w3.org/2000/svg"
   xmlns:sodipodi="http://sodipodi.sourceforge.net/DTD/sodipodi-0.dtd"
   xmlns:inkscape="http://www.inkscape.org/namespaces/inkscape"
   id="svg8"
   version="1.1"
   viewBox="0 0 75.670831 75.670831"
   height="286"
   width="286"
   sodipodi:docname="kąpielisko.svg"
   inkscape:version="0.92.4 5da689c313, 2019-01-14">
  <sodipodi:namedview
     pagecolor="#ffffff"
     bordercolor="#666666"
     borderopacity="1"
     objecttolerance="10"
     gridtolerance="10"
     guidetolerance="10"
     inkscape:pageopacity="0"
     inkscape:pageshadow="2"
     inkscape:window-width="1920"
     inkscape:window-height="1020"
     id="namedview8239"
     showgrid="false"
     inkscape:zoom="0.82517483"
     inkscape:cx="-75.741525"
     inkscape:cy="143"
     inkscape:window-x="0"
     inkscape:window-y="0"
     inkscape:window-maximized="1"
     inkscape:current-layer="layer14" />
  <defs
     id="defs2" />
  <metadata
     id="metadata5">
    <rdf:RDF>
      <cc:Work
         rdf:about="">
        <dc:format>image/svg+xml</dc:format>
        <dc:type
           rdf:resource="http://purl.org/dc/dcmitype/StillImage" />
        <dc:title />
      </cc:Work>
    </rdf:RDF>
  </metadata>
  <g
     inkscape:groupmode="layer"
     id="layer14"
     inkscape:label="Layer 1">
    <rect
       style="display:inline;fill:#ffffff;fill-rule:evenodd;stroke-width:0.26458332"
       id="rect1982"
       width="68.708389"
       height="68.616776"
       x="2.6453431"
       y="3.0957773"
       rx="5.4282708"
       ry="5.9669361" />
  </g>
  <g
     inkscape:groupmode="layer"
     id="layer15"
     inkscape:label="Layer 2">
    <g
       style=""
       transform="translate(0,-221.32918)"
       id="layer1">
      <rect
         ry="5.9669409"
         rx="5.4282579"
         y="224.42496"
         x="2.6453431"
         height="70.38015"
         width="70.38015"
         id="rect815"
         style="fill:none;fill-rule:evenodd;stroke:#000080;stroke-width:5.29068613;stroke-miterlimit:4;stroke-dasharray:none;stroke-opacity:1" />
      <path
         id="path2935"
         d="m 11.244792,276.83551 v -2.22307 l 0.833232,-0.29047 c 0.458278,-0.15975 1.073981,-0.29046 1.368229,-0.29046 0.294248,0 0.73682,-0.18265 0.983492,-0.40589 0.566858,-0.513 3.530962,-1.00307 4.752547,-0.78576 0.509323,0.0906 1.632332,0.41124 2.495574,0.71252 1.89915,0.66284 4.552846,0.54389 6.160196,-0.27612 0.566414,-0.28896 1.856909,-0.60633 2.867766,-0.70526 1.543245,-0.15104 2.113661,-0.0827 3.557715,0.42632 2.374061,0.83683 4.962692,0.8386 6.746875,0.005 1.05319,-0.49229 1.781453,-0.62021 3.571875,-0.62738 1.236927,-0.005 2.606146,0.14091 3.042709,0.32414 0.436562,0.18324 1.427498,0.48494 2.202082,0.67044 1.481352,0.35476 1.778508,0.3062 4.354076,-0.71145 1.845448,-0.72917 4.255238,-0.86754 6.011551,-0.34517 0.800364,0.23804 2.080286,0.56351 2.844271,0.72326 l 1.389062,0.29045 v 2.1837 2.1837 l -0.79729,0.17511 c -0.504523,0.11081 -1.403215,-0.0155 -2.447396,-0.34401 -0.907558,-0.28552 -1.976049,-0.59489 -2.374421,-0.68748 -0.817552,-0.19001 -4.308727,0.4642 -4.842889,0.90751 -0.905206,0.75126 -4.639635,0.56571 -7.113307,-0.35342 -1.263039,-0.4693 -4.291471,-0.24549 -5.543206,0.40966 -1.437429,0.75234 -5.35786,0.82204 -6.834137,0.1215 -1.792862,-0.85077 -5.596598,-0.54445 -7.945328,0.63985 -0.584384,0.29466 -4.359087,0.30454 -4.539961,0.0119 -0.377051,-0.61008 -4.676858,-1.09393 -5.865161,-0.65999 -1.509912,0.55138 -3.741209,1.14435 -4.306098,1.14435 -0.540965,0 -0.572058,-0.12083 -0.572058,-2.22308 z m 10.252605,-7.3827 c -0.942926,-0.20444 -1.256771,-0.39356 -1.256771,-0.75731 0,-0.30914 0.192592,-0.48483 0.531457,-0.48483 0.292302,0 1.024541,-0.35718 1.627198,-0.79375 0.602657,-0.43656 1.261448,-0.79375 1.463981,-0.79375 0.202532,0 0.612283,-0.22736 0.910557,-0.50524 0.298274,-0.27789 1.096967,-0.7839 1.774874,-1.12448 0.677907,-0.34058 1.530214,-0.80943 1.894016,-1.04188 0.363802,-0.23246 1.316302,-0.78477 2.116667,-1.22735 0.800365,-0.44259 2.705365,-1.53002 4.233334,-2.4165 1.527968,-0.88649 2.926953,-1.6141 3.108854,-1.61692 0.352507,-0.005 0.472149,-1.48568 0.132292,-1.63672 -0.109141,-0.0485 -0.546693,-0.80257 -0.972339,-1.6757 -0.425646,-0.87312 -0.842364,-1.64703 -0.926042,-1.71979 -0.203293,-0.17677 -1.111185,-1.86247 -2.133339,-3.96101 -0.977241,-2.00633 -0.929983,-2.819 0.259406,-4.46091 0.598251,-0.82586 1.012075,-1.11571 1.779808,-1.24664 3.234103,-0.55152 6.662666,-1.21563 7.350318,-1.42375 0.436563,-0.13213 2.758282,-0.61674 5.159375,-1.0769 2.401094,-0.46016 4.572368,-0.94643 4.825056,-1.0806 0.618461,-0.32838 3.112445,-0.31184 3.112445,0.0206 0,0.14552 0.172534,0.26459 0.38341,0.26459 0.210876,0 0.687126,0.39819 1.058333,0.88487 0.970198,1.27199 0.952228,3.24289 -0.04033,4.42247 -1.028888,1.22276 -1.767277,1.49285 -6.825375,2.49652 -4.663845,0.92544 -6.845747,1.44959 -7.102303,1.70615 -0.274743,0.27474 0.321567,1.57291 2.619909,5.70353 0.485823,0.87312 1.675337,3.07578 2.643365,4.89479 0.968031,1.81901 1.906665,3.48588 2.085854,3.70417 0.648091,0.78948 1.73755,3.17998 1.73755,3.81255 0,0.58686 -0.137065,0.66441 -1.468252,0.83073 -1.41359,0.17662 -2.851185,-0.0976 -5.220819,-0.99584 -0.986613,-0.37399 -3.998688,-0.10908 -4.81093,0.42313 -0.358717,0.23504 -0.887502,0.42734 -1.175075,0.42734 -0.287573,0 -0.596445,0.11907 -0.686383,0.26459 -0.202337,0.32738 -3.485737,0.35342 -3.686099,0.0292 -0.08,-0.12944 -0.533511,-0.29943 -1.007803,-0.37776 -0.474291,-0.0783 -1.356728,-0.25196 -1.960971,-0.38585 -1.399316,-0.31008 -4.105752,0.048 -5.579223,0.73819 -1.245842,0.58355 -3.74625,0.65912 -5.956008,0.17999 z m 33.271355,-5.37627 c -2.623426,-0.67001 -3.955055,-2.32902 -4.267303,-5.31645 -0.140867,-1.34775 -0.06563,-1.76379 0.55694,-3.07979 0.395893,-0.83686 0.975963,-1.78717 1.289044,-2.11181 1.258975,-1.30548 4.360493,-2.01602 6.529084,-1.49579 1.841063,0.44167 3.537882,2.32092 3.968494,4.39517 0.632343,3.04598 -0.590545,5.75131 -3.210587,7.10261 -0.889604,0.45882 -3.846478,0.76635 -4.865672,0.50606 z"
         style="fill:#000000;stroke-width:0.26458335" />
    </g>
  </g>
</svg>
