<svg width="59" height="59" viewBox="0 0 59 59" fill="none" xmlns="http://www.w3.org/2000/svg">
<path d="M38.1435 11.0625C38.1435 12.4465 38.6032 13.6192 39.5251 14.5779C40.447 15.5367 41.5999 16.0185 42.9815 16.0185C44.3655 16.0185 45.5382 15.5367 46.4969 14.5779C47.4557 13.6192 47.9375 12.4465 47.9375 11.0625C47.9375 9.75712 47.4385 8.60417 46.4379 7.60608C45.4398 6.608 44.2893 6.1065 42.9815 6.1065C41.6786 6.1065 40.5428 6.608 39.5841 7.60608C38.6229 8.60417 38.1435 9.75712 38.1435 11.0625ZM54.044 11.0625C54.044 13.5208 53.1221 16.4413 51.2784 19.8215C49.4346 23.1993 47.5909 25.9674 45.7471 28.116L42.9815 31.3437C41.9207 30.1744 40.8839 28.9835 39.8717 27.7718C38.6425 26.3115 37.0102 23.777 34.9747 20.1657C32.9368 16.5544 31.919 13.5208 31.919 11.0625C31.919 7.98958 32.9957 5.37637 35.1468 3.22533C37.2978 1.07429 39.9086 0 42.9815 0C46.0544 0 48.6676 1.07675 50.8187 3.22779C52.9697 5.37883 54.044 7.98958 54.044 11.0625ZM51.625 28.4626V46.669C51.625 47.9768 51.126 49.1273 50.1254 50.1279C49.1273 51.126 47.9768 51.625 46.669 51.625H12.331C11.0232 51.625 9.87267 51.126 8.87212 50.1254C7.87404 49.1273 7.375 47.9768 7.375 46.669V12.331C7.375 11.0232 7.87404 9.87267 8.87458 8.87212C9.87021 7.87404 11.0207 7.375 12.3285 7.375H27.5382C27.231 8.91146 27.0785 10.1406 27.0785 11.0625C27.0785 13.983 28.1135 17.4197 30.1883 21.3752C32.2632 25.3331 34.011 28.2143 35.432 30.0187C36.6885 31.6311 38.0148 33.1878 39.4071 34.6846L42.979 38.6032L46.6665 34.6846C49.8181 30.6898 51.4677 28.6175 51.6225 28.465L51.625 28.4626ZM22.125 35.6065V39.0654H27.6562C27.0417 41.7523 25.1979 43.097 22.125 43.097C20.4337 43.097 19.0127 42.4825 17.8622 41.2533C16.7308 40.0791 16.1088 38.5055 16.1316 36.875C16.1316 35.1837 16.7093 33.7259 17.8622 32.4967C19.0127 31.2675 20.4337 30.653 22.125 30.653C23.7377 30.653 25.0455 31.152 26.0436 32.1525L28.6937 29.6155C26.8499 27.9242 24.6989 27.081 22.2405 27.081H22.125C19.4356 27.081 17.1321 28.0397 15.2097 29.9597C13.2922 31.8821 12.331 34.188 12.331 36.875C12.331 39.5644 13.2897 41.8679 15.2097 43.7903C17.1321 45.7078 19.438 46.669 22.125 46.669C24.9668 46.669 27.2531 45.7865 28.9837 44.0189C30.7095 42.2538 31.5748 39.9479 31.5748 37.1061C31.5748 36.4153 31.5355 35.9138 31.4593 35.6065H22.125Z" fill="black"/>
</svg>
